<?xml version="1.0" encoding="UTF-8"?>
<svg version="1.1" xmlns="http://www.w3.org/2000/svg" width="248" height="248">
<path d="M0 0 C1.22847656 0.3403125 2.45695313 0.680625 3.72265625 1.03125 C35.13818532 10.64758568 60.01142114 31.97224143 75.9453125 60.48046875 C80.2379052 68.70329242 83.49364591 77.08545853 86 86 C86.48146484 87.70736328 86.48146484 87.70736328 86.97265625 89.44921875 C91.26410446 107.91242617 91.14473438 129.72374602 86 148 C85.6596875 149.22847656 85.319375 150.45695313 84.96875 151.72265625 C75.35241432 183.13818532 54.02775857 208.01142114 25.51953125 223.9453125 C17.29670758 228.2379052 8.91454147 231.49364591 0 234 C-1.70736328 234.48146484 -1.70736328 234.48146484 -3.44921875 234.97265625 C-21.91242617 239.26410446 -43.72374602 239.14473438 -62 234 C-63.22847656 233.6596875 -64.45695312 233.319375 -65.72265625 232.96875 C-97.13818532 223.35241432 -122.01142114 202.02775857 -137.9453125 173.51953125 C-142.2379052 165.29670758 -145.49364591 156.91454147 -148 148 C-148.48146484 146.29263672 -148.48146484 146.29263672 -148.97265625 144.55078125 C-153.26410446 126.08757383 -153.14473438 104.27625398 -148 86 C-147.6596875 84.77152344 -147.319375 83.54304688 -146.96875 82.27734375 C-137.35241432 50.86181468 -116.02775857 25.98857886 -87.51953125 10.0546875 C-79.29670758 5.7620948 -70.91454147 2.50635409 -62 0 C-60.86175781 -0.32097656 -59.72351563 -0.64195313 -58.55078125 -0.97265625 C-40.08757383 -5.26410446 -18.27625398 -5.14473438 0 0 Z " fill="#F3ECE2" transform="translate(158,9)"/>
<path d="M0 0 C1.79630859 0.74636719 1.79630859 0.74636719 3.62890625 1.5078125 C10.34146019 4.47907044 16.05230058 8.81511067 21.4921875 13.703125 C23.1797903 15.207988 23.1797903 15.207988 26 17 C25.67 17.66 25.34 18.32 25 19 C25 19.33 25 19.66 25 20 C26.64639965 21.35827971 28.31295807 22.69254251 30 24 C29.34 23.01 28.68 22.02 28 21 C31.33002846 22.42926 33.35827509 24.16642265 35.75 26.875 C36.36359375 27.55304687 36.9771875 28.23109375 37.609375 28.9296875 C39 31 39 31 39 35 C40.24240686 38.17466443 40.24240686 38.17466443 43 40 C44 42.33333333 45 44.66666667 46 47 C46.66 47.33 47.32 47.66 48 48 C49.10527746 50.31581944 50.05637212 52.61673472 51 55 C51.38414062 55.87527344 51.76828125 56.75054687 52.1640625 57.65234375 C58.86894244 73.63299318 60.70040725 89.80111087 60 107 C59.67 106.01 59.34 105.02 59 104 C58.34 104 57.68 104 57 104 C56.67 103.01 56.34 102.02 56 101 C55.87882813 102.05960937 55.75765625 103.11921875 55.6328125 104.2109375 C55.46399248 105.59901324 55.29469692 106.98703119 55.125 108.375 C55.04636719 109.07367188 54.96773437 109.77234375 54.88671875 110.4921875 C54.2265625 115.7734375 54.2265625 115.7734375 52 118 C51.98018066 117.2793335 51.96036133 116.55866699 51.93994141 115.81616211 C51.8441634 112.52293328 51.73469883 109.23029332 51.625 105.9375 C51.57859375 104.2369043 51.57859375 104.2369043 51.53125 102.50195312 C51.19373896 92.2151735 51.19373896 92.2151735 47 83 C46.67 82.01 46.34 81.02 46 80 C46.66 80 47.32 80 48 80 C46.8509288 78.7018576 46.8509288 78.7018576 44 78 C42.9375 76.0390625 42.9375 76.0390625 42 73.625 C40.70578758 70.31397324 39.49491947 68.47701335 37 66 C35.59266853 63.82683152 34.2255891 61.64503494 32.875 59.4375 C28.26091615 52.08129931 23.14427427 45.21942211 16.234375 39.8515625 C15.49703125 39.24054687 14.7596875 38.62953125 14 38 C14 37.34 14 36.68 14 36 C13.41089844 35.72414062 12.82179687 35.44828125 12.21484375 35.1640625 C10.10557163 34.05548562 8.42090731 32.85675906 6.5625 31.375 C-7.66211634 20.68038955 -21.45578481 15.53879572 -39 13 C-39 12.67 -39 12.34 -39 12 C-39.77714355 12.03552979 -40.55428711 12.07105957 -41.35498047 12.10766602 C-44.86142966 12.26485529 -48.36818176 12.41378153 -51.875 12.5625 C-53.09832031 12.61857422 -54.32164063 12.67464844 -55.58203125 12.73242188 C-57.33193359 12.80493164 -57.33193359 12.80493164 -59.1171875 12.87890625 C-60.19597168 12.9260376 -61.27475586 12.97316895 -62.38623047 13.02172852 C-65 13 -65 13 -67 12 C-67 12.66 -67 13.32 -67 14 C-68.11117187 14.31453125 -69.22234375 14.6290625 -70.3671875 14.953125 C-82.23869888 18.34975568 -92.9077732 21.66019869 -103 29 C-103.66773437 29.474375 -104.33546875 29.94875 -105.0234375 30.4375 C-114.29986329 37.18399148 -122.18205459 44.74351937 -129 54 C-129.40508789 54.54897949 -129.81017578 55.09795898 -130.22753906 55.66357422 C-134.33525334 61.66752037 -136.22286979 68.19377402 -138.25 75.125 C-138.600625 76.27871094 -138.95125 77.43242188 -139.3125 78.62109375 C-145.99278458 100.89727347 -144.00070506 125.28467586 -133.40234375 146.14453125 C-131.69713912 149.1703955 -129.8970632 152.09090518 -128 155 C-127.40445313 155.91394531 -126.80890625 156.82789063 -126.1953125 157.76953125 C-113.12630005 176.72231071 -93.29127683 191.40423053 -70.29296875 195.6328125 C-69.53628906 195.75398437 -68.77960938 195.87515625 -68 196 C-66.50919922 196.27457031 -66.50919922 196.27457031 -64.98828125 196.5546875 C-38.46368409 201.13763565 -12.15405359 194.47232439 9.8125 179.0625 C14.64961568 175.41012715 18.94393328 171.50022278 23 167 C23.96679688 165.94619141 23.96679688 165.94619141 24.953125 164.87109375 C34.77363573 153.44605076 40.44325893 139.96569659 44.79321289 125.69213867 C45.05610107 124.83467041 45.31898926 123.97720215 45.58984375 123.09375 C45.81534912 122.32740234 46.04085449 121.56105469 46.27319336 120.77148438 C47 119 47 119 49 118 C48.22170173 129.94449586 45.31096258 139.30710428 40 150 C39.55527344 150.9178125 39.11054688 151.835625 38.65234375 152.78125 C37.79202481 154.53272369 36.90140069 156.26931067 36 158 C39.00621497 154.41515516 41.43002885 150.74744951 43.75 146.6875 C44.67039063 145.08455078 44.67039063 145.08455078 45.609375 143.44921875 C46.06828125 142.64097656 46.5271875 141.83273438 47 141 C49 144 49 144 48.75390625 145.9296875 C47.96264432 148.10258294 47.02086382 150.08252915 45.9375 152.125 C44.39105671 154.91463805 44.39105671 154.91463805 44 158 C43.4173147 161.96226003 42.12057289 165.44509824 40.62109375 169.1328125 C39.84218391 171.14647797 39.84218391 171.14647797 40 174 C40 179.26246467 35.40896248 183.41289696 32 187 C30.05287619 188.74113086 28.03303682 190.3562681 26 192 C24.6696875 193.36125 24.6696875 193.36125 23.3125 194.75 C21 197 21 197 18 198 C18 198.66 18 199.32 18 200 C11.99739209 205.07028795 5.12049721 208.77019363 -2 212 C-2.90234375 212.42152344 -3.8046875 212.84304687 -4.734375 213.27734375 C-32.28248386 225.52508404 -65.0440137 225.01798631 -93.1875 214.75 C-105.41754582 209.9997942 -115.99552299 203.50225678 -126 195 C-127.06788672 194.14669491 -128.13833754 193.29659172 -129.2109375 192.44921875 C-130.30751861 191.57059567 -131.40387588 190.69169313 -132.5 189.8125 C-133.5003125 189.01457031 -134.500625 188.21664062 -135.53125 187.39453125 C-138.02631445 184.97447665 -139.017182 183.29361032 -140 180 C-140.66 180 -141.32 180 -142 180 C-143.81814133 177.72579292 -145.48484548 175.46167697 -147.125 173.0625 C-147.61274902 172.3511792 -148.10049805 171.6398584 -148.60302734 170.90698242 C-162 150.82029971 -162 150.82029971 -162 141 C-162.66 140.34 -163.32 139.68 -164 139 C-169.75622193 124.24891311 -169.62921499 108.55613052 -169 93 C-167.1110142 96.51285078 -166.63583651 99.25050691 -166.375 103.25 C-166.30023438 104.32765625 -166.22546875 105.4053125 -166.1484375 106.515625 C-166.09945312 107.33546875 -166.05046875 108.1553125 -166 109 C-165.67 109 -165.34 109 -165 109 C-165 111.97 -165 114.94 -165 118 C-164.34 118 -163.68 118 -163 118 C-163.16242188 117.01515625 -163.32484375 116.0303125 -163.4921875 115.015625 C-164.07553059 110.91367179 -164.14777528 106.88750835 -164.125 102.75 C-164.12886719 102.06292969 -164.13273438 101.37585938 -164.13671875 100.66796875 C-164.11869288 90.87992191 -163.09458325 81.83046967 -160.0625 72.5 C-159.60713867 71.08811401 -159.60713867 71.08811401 -159.14257812 69.64770508 C-154.63884843 56.30999466 -148.22270731 43.68899027 -139 33 C-138.39929688 32.19691406 -137.79859375 31.39382812 -137.1796875 30.56640625 C-132.20447683 23.94957748 -126.57906534 18.98852207 -120 14 C-119.1234375 13.3090625 -118.246875 12.618125 -117.34375 11.90625 C-84.55992622 -13.16373289 -37.1157367 -17.03598686 0 0 Z " fill="#443420" transform="translate(179,20)"/>
<path d="M0 0 C1.02673828 1.04607422 1.02673828 1.04607422 2.07421875 2.11328125 C2.77160156 2.79777344 3.46898437 3.48226562 4.1875 4.1875 C6.13353861 6.9544482 6.2054295 8.09856607 5.76171875 11.42578125 C4.06860352 13.65478516 4.06860352 13.65478516 1.703125 15.90234375 C0.41776855 17.14794067 0.41776855 17.14794067 -0.89355469 18.41870117 C-2.27075684 19.72158081 -2.27075684 19.72158081 -3.67578125 21.05078125 C-9.99250242 27.18259315 -16.05408036 33.19106621 -21.45703125 40.1484375 C-23.20867206 42.38792564 -25.06108775 44.4616719 -26.98828125 46.55078125 C-31.42954658 51.47961064 -35.37667667 56.76464473 -39.37866211 62.04956055 C-43.20396579 67.09567034 -47.12085874 72.03307851 -51.16015625 76.91015625 C-54.57182432 81.04007023 -57.89980589 85.23668632 -61.23828125 89.42578125 C-60.44776367 89.53462646 -59.65724609 89.64347168 -58.84277344 89.75561523 C-50.91909195 90.90252544 -43.2519022 92.55633924 -35.48828125 94.48828125 C-18.88913551 98.43718063 -3.87055921 101.02353413 11.76171875 92.42578125 C12.75171875 92.09578125 13.74171875 91.76578125 14.76171875 91.42578125 C14.76171875 90.76578125 14.76171875 90.10578125 14.76171875 89.42578125 C16.74171875 89.92078125 16.74171875 89.92078125 18.76171875 90.42578125 C18.3888868 97.50958827 14.59966619 103.6192502 9.64453125 108.51953125 C1.27169763 115.35686251 -5.57275799 116.9410701 -16.23828125 116.42578125 C-19.97995137 116.001295 -23.66227932 115.36572857 -27.36328125 114.67578125 C-28.86314575 114.40942871 -28.86314575 114.40942871 -30.39331055 114.13769531 C-35.65320398 113.18005053 -40.82843106 112.06952705 -45.99853516 110.71191406 C-59.04346252 107.30403154 -71.62358195 106.72273746 -84.44140625 111.453125 C-87.42062981 112.48919576 -90.09179442 113.16645541 -93.23828125 113.42578125 C-96.84272423 110.99971386 -99.94810717 108.68335571 -101.23828125 104.42578125 C-101.67578125 101.42578125 -101.67578125 101.42578125 -101.23828125 98.42578125 C-98.92578125 96.23828125 -98.92578125 96.23828125 -96.23828125 94.42578125 C-95.22741266 93.43676927 -94.22828199 92.43568151 -93.23828125 91.42578125 C-92.06290737 90.34988222 -90.87513022 89.2873878 -89.67578125 88.23828125 C-89.07636719 87.70847656 -88.47695312 87.17867188 -87.859375 86.6328125 C-86.23828125 85.42578125 -86.23828125 85.42578125 -84.23828125 85.42578125 C-83.88443359 84.57886719 -83.88443359 84.57886719 -83.5234375 83.71484375 C-81.94593183 80.90506162 -79.99776839 79.02959074 -77.67578125 76.80078125 C-74.54786071 73.91507444 -74.54786071 73.91507444 -72.23828125 70.42578125 C-71.57828125 70.42578125 -70.91828125 70.42578125 -70.23828125 70.42578125 C-69.98691406 69.86375 -69.73554687 69.30171875 -69.4765625 68.72265625 C-68.04995026 66.07644806 -66.35626257 63.98233037 -64.42578125 61.67578125 C-63.63042969 60.71800781 -62.83507812 59.76023438 -62.015625 58.7734375 C-61.57589355 58.24508301 -61.13616211 57.71672852 -60.68310547 57.17236328 C-57.92636244 53.8398625 -55.21081041 50.47373977 -52.48828125 47.11328125 C-45.19361102 38.11222373 -37.70781472 29.32157795 -30.0078125 20.6640625 C-29.29858643 19.86653564 -28.58936035 19.06900879 -27.85864258 18.24731445 C-27.32392334 17.6462085 -26.7892041 17.04510254 -26.23828125 16.42578125 C-32.142388 16.35096316 -38.04621157 16.29686669 -43.95068359 16.26098633 C-45.9543133 16.24600983 -47.95791086 16.22562144 -49.96142578 16.19946289 C-69.9819192 15.91691692 -69.9819192 15.91691692 -88.30078125 23.33984375 C-90.27950977 24.44888917 -92.0237087 24.98088944 -94.23828125 25.42578125 C-97.73378893 21.16563126 -98.91705023 18.14904005 -98.609375 12.6015625 C-97.98715599 8.95339418 -96.78704327 7.09887312 -94.23828125 4.42578125 C-87.62192255 0.57446798 -81.33272528 -0.70682295 -73.72314453 -0.671875 C-72.4247464 -0.66857178 -71.12634827 -0.66526855 -69.78860474 -0.66186523 C-69.09958195 -0.65774628 -68.41055916 -0.65362732 -67.70065689 -0.64938354 C-65.53080514 -0.63655445 -63.36101497 -0.6300873 -61.19113159 -0.62524414 C-55.80158307 -0.61191223 -50.41209319 -0.58773369 -45.02258301 -0.56384277 C-40.46563922 -0.54404967 -35.90871756 -0.52843367 -31.35174179 -0.51828003 C-29.2230708 -0.51183822 -27.09449192 -0.49932962 -24.96585083 -0.48657227 C-23.66114838 -0.48326904 -22.35644592 -0.47996582 -21.01220703 -0.4765625 C-19.87034943 -0.47132568 -18.72849182 -0.46608887 -17.55203247 -0.46069336 C-1.43986253 -1.01267818 -1.43986253 -1.01267818 0 0 Z " fill="#453421" transform="translate(174.23828125,66.57421875)"/>
<path d="M0 0 C1.22847656 0.3403125 2.45695313 0.680625 3.72265625 1.03125 C35.13818532 10.64758568 60.01142114 31.97224143 75.9453125 60.48046875 C80.2379052 68.70329242 83.49364591 77.08545853 86 86 C86.48146484 87.70736328 86.48146484 87.70736328 86.97265625 89.44921875 C91.26410446 107.91242617 91.14473438 129.72374602 86 148 C85.6596875 149.22847656 85.319375 150.45695313 84.96875 151.72265625 C75.35241432 183.13818532 54.02775857 208.01142114 25.51953125 223.9453125 C17.29670758 228.2379052 8.91454147 231.49364591 0 234 C-1.70736328 234.48146484 -1.70736328 234.48146484 -3.44921875 234.97265625 C-21.91242617 239.26410446 -43.72374602 239.14473438 -62 234 C-63.22847656 233.6596875 -64.45695312 233.319375 -65.72265625 232.96875 C-97.13818532 223.35241432 -122.01142114 202.02775857 -137.9453125 173.51953125 C-142.2379052 165.29670758 -145.49364591 156.91454147 -148 148 C-148.48146484 146.29263672 -148.48146484 146.29263672 -148.97265625 144.55078125 C-153.26410446 126.08757383 -153.14473438 104.27625398 -148 86 C-147.6596875 84.77152344 -147.319375 83.54304688 -146.96875 82.27734375 C-137.35241432 50.86181468 -116.02775857 25.98857886 -87.51953125 10.0546875 C-79.29670758 5.7620948 -70.91454147 2.50635409 -62 0 C-60.86175781 -0.32097656 -59.72351563 -0.64195313 -58.55078125 -0.97265625 C-40.08757383 -5.26410446 -18.27625398 -5.14473438 0 0 Z M-102.54003906 27.76171875 C-103.79921833 28.82970491 -105.08121518 29.87068153 -106.3671875 30.90625 C-111.71568562 35.31824067 -115.84639661 40.47309569 -120 46 C-120.56332031 46.70125 -121.12664062 47.4025 -121.70703125 48.125 C-133.51284359 63.60803257 -142.66250864 85.37357917 -143 105 C-143.01369629 105.66064453 -143.02739258 106.32128906 -143.04150391 107.00195312 C-143.17849549 114.44241158 -143.21353171 121.64176011 -142 129 C-142.66 129 -143.32 129 -144 129 C-144 126.03 -144 123.06 -144 120 C-144.33 120 -144.66 120 -145 120 C-145.66 114.72 -146.32 109.44 -147 104 C-147.33 104 -147.66 104 -148 104 C-148.62921499 119.55613052 -148.75622193 135.24891311 -143 150 C-142.34 150.66 -141.68 151.32 -141 152 C-141 152.99 -141 153.98 -141 155 C-140.03808478 157.52320009 -139.03171581 159.97256834 -137.9375 162.4375 C-137.62240479 163.15035156 -137.30730957 163.86320313 -136.98266602 164.59765625 C-132.84355271 173.77877517 -128.0024641 183.62898516 -121 191 C-120.34 191 -119.68 191 -119 191 C-118.80019531 191.70640625 -118.60039063 192.4128125 -118.39453125 193.140625 C-116.56208101 196.89791793 -113.85312857 199.14013964 -110.6875 201.75 C-110.06230469 202.27295654 -109.43710938 202.79591309 -108.79296875 203.3347168 C-98.64388491 211.71001292 -88.05215587 218.62101768 -76 224 C-74.45699219 224.69416016 -74.45699219 224.69416016 -72.8828125 225.40234375 C-46.86014648 235.86867275 -13.94153987 236.75655786 12.22265625 226.2578125 C26.39810563 219.92795618 26.39810563 219.92795618 39 211 C39 210.34 39 209.68 39 209 C39.59167969 208.72414062 40.18335938 208.44828125 40.79296875 208.1640625 C46.73445464 205.03032304 51.12562789 199.88693073 55.421875 194.8359375 C57.18445531 192.7854109 59.04971072 190.87227771 61 189 C60.67 188.01 60.34 187.02 60 186 C60.9375 183.9375 60.9375 183.9375 62 182 C62 181.34 62 180.68 62 180 C62.76575245 178.00125631 63.59964626 176.0381603 64.44140625 174.0703125 C65.18025689 172.00798593 65.18025689 172.00798593 64.4765625 169.96484375 C64 168 64 168 65.8125 164.4375 C67.15877086 162.25527756 68.57717425 160.13423862 70 158 C69.68493373 154.85778033 69.68493373 154.85778033 69 152 C66.18921794 154.47616514 64.7090755 157.18866622 63 160.5 C61.26826866 163.85522948 59.72615219 166.4063691 57 169 C57.26216309 168.45061768 57.52432617 167.90123535 57.79443359 167.33520508 C58.98956068 164.82839826 60.18230011 162.32046249 61.375 159.8125 C61.7875 158.94818359 62.2 158.08386719 62.625 157.19335938 C63.02460938 156.35224609 63.42421875 155.51113281 63.8359375 154.64453125 C64.20251465 153.87471924 64.5690918 153.10490723 64.94677734 152.31176758 C66.65339698 148.56582846 68.16469684 145.12444918 68.6328125 141.01171875 C68.71660156 140.30595703 68.80039063 139.60019531 68.88671875 138.87304688 C68.96535156 138.15181641 69.04398438 137.43058594 69.125 136.6875 C69.25455078 135.57665039 69.25455078 135.57665039 69.38671875 134.44335938 C69.59734705 132.62961565 69.79952986 130.81489457 70 129 C71.32 129 72.64 129 74 129 C76.25433614 123.43930418 76.59961828 117.9214349 77 112 C77.33 112.99 77.66 113.98 78 115 C78.66 115 79.32 115 80 115 C80.33 115.99 80.66 116.98 81 118 C81.74688641 99.65978929 79.39770062 82.89474872 72 66 C71.58234375 64.90945312 71.58234375 64.90945312 71.15625 63.796875 C69.69364388 60.01317656 67.88756764 57.79131538 65 55 C64.63837971 53.67405895 64.30271961 52.34061543 64 51 C62.58333333 49.41666667 62.58333333 49.41666667 61 48 C59 45 59 45 59 41 C57.25958844 38.55768145 57.25958844 38.55768145 55 36.25 C54.2575 35.45078125 53.515 34.6515625 52.75 33.828125 C52.1725 33.22484375 51.595 32.6215625 51 32 C50.34 32.33 49.68 32.66 49 33 C49.33 33.66 49.66 34.32 50 35 C48.02 33.02 46.04 31.04 44 29 C44.99 29.33 45.98 29.66 47 30 C45.87817764 26.63453292 45.22854771 26.17018164 42.4375 24.1875 C41.35855469 23.41019531 41.35855469 23.41019531 40.2578125 22.6171875 C39.51273438 22.08351563 38.76765625 21.54984375 38 21 C36.60218024 19.94011469 35.2062722 18.87770233 33.8125 17.8125 C28.7329495 13.93065404 23.7903284 11.41291891 17.6875 9.5 C13.7492431 8.23716737 9.86779045 6.96247875 6.01953125 5.44921875 C-4.96438327 1.29716873 -16.87678216 0.72616015 -28.5 0.6875 C-29.49 0.68210205 -30.48 0.6767041 -31.5 0.67114258 C-57.17692605 0.91919756 -83.12868322 11.26266063 -102.54003906 27.76171875 Z " fill="#EFE9DF" transform="translate(158,9)"/>
<path d="M0 0 C13.41567782 1.45792523 25.49535871 3.89799809 38 9 C38.90234375 9.35191406 39.8046875 9.70382813 40.734375 10.06640625 C48.53432638 13.28052414 55.24122462 18.08631777 61.4921875 23.703125 C63.1797903 25.207988 63.1797903 25.207988 66 27 C65.67 27.66 65.34 28.32 65 29 C65 29.33 65 29.66 65 30 C66.64639965 31.35827971 68.31295807 32.69254251 70 34 C69.34 33.01 68.68 32.02 68 31 C71.33002846 32.42926 73.35827509 34.16642265 75.75 36.875 C76.36359375 37.55304687 76.9771875 38.23109375 77.609375 38.9296875 C79 41 79 41 79 45 C80.24240686 48.17466443 80.24240686 48.17466443 83 50 C84 52.33333333 85 54.66666667 86 57 C86.66 57.33 87.32 57.66 88 58 C89.10527746 60.31581944 90.05637212 62.61673472 91 65 C91.38414062 65.87527344 91.76828125 66.75054687 92.1640625 67.65234375 C98.86894244 83.63299318 100.70040725 99.80111087 100 117 C99.67 116.01 99.34 115.02 99 114 C98.34 114 97.68 114 97 114 C96.67 113.01 96.34 112.02 96 111 C95.87882812 112.05960937 95.75765625 113.11921875 95.6328125 114.2109375 C95.46399248 115.59901324 95.29469692 116.98703119 95.125 118.375 C95.04636719 119.07367188 94.96773438 119.77234375 94.88671875 120.4921875 C94.2265625 125.7734375 94.2265625 125.7734375 92 128 C91.970271 126.91900024 91.970271 126.91900024 91.93994141 125.81616211 C91.8441634 122.52293328 91.73469883 119.23029332 91.625 115.9375 C91.5940625 114.80376953 91.563125 113.67003906 91.53125 112.50195312 C91.19373896 102.2151735 91.19373896 102.2151735 87 93 C86.67 92.01 86.34 91.02 86 90 C86.66 90 87.32 90 88 90 C86.8509288 88.7018576 86.8509288 88.7018576 84 88 C82.9375 86.0390625 82.9375 86.0390625 82 83.625 C80.70578758 80.31397324 79.49491947 78.47701335 77 76 C75.59266853 73.82683152 74.2255891 71.64503494 72.875 69.4375 C68.26091615 62.08129931 63.14427427 55.21942211 56.234375 49.8515625 C55.49703125 49.24054687 54.7596875 48.62953125 54 48 C54 47.34 54 46.68 54 46 C53.41089844 45.72414062 52.82179687 45.44828125 52.21484375 45.1640625 C50.10557163 44.05548562 48.42090731 42.85675906 46.5625 41.375 C38.36682586 35.15179221 29.98692777 29.70831939 20 27 C20.99 24.36 21.98 21.72 23 19 C22.34 19 21.68 19 21 19 C20.67 19.99 20.34 20.98 20 22 C19.34 21.34 18.68 20.68 18 20 C18.66 20 19.32 20 20 20 C20 18.68 20 17.36 20 16 C20 15.34 20 14.68 20 14 C19.34 13.67 18.68 13.34 18 13 C18.99 12.34 19.98 11.68 21 11 C16.15531261 8.39240433 16.15531261 8.39240433 11 9 C10.01 8.67 9.02 8.34 8 8 C7.01 9.485 7.01 9.485 6 11 C5.67 9.35 5.34 7.7 5 6 C3.68 6 2.36 6 1 6 C1 5.01 1 4.02 1 3 C0.01 3 -0.98 3 -2 3 C-1.34 2.67 -0.68 2.34 0 2 C0 1.34 0 0.68 0 0 Z " fill="#4A3A27" transform="translate(139,10)"/>
<path d="M0 0 C0.01417969 1.20011719 0.02835938 2.40023437 0.04296875 3.63671875 C0.27408363 13.22604417 1.17599712 22.33505569 3.375 31.6875 C3.58406982 32.60168701 3.79313965 33.51587402 4.00854492 34.45776367 C4.80453568 37.79844315 4.80453568 37.79844315 6 41 C6.99 41.33 7.98 41.66 9 42 C8.773125 42.5053125 8.54625 43.010625 8.3125 43.53125 C7.83758995 47.2830394 9.46132344 50.16685666 11 53.5 C11.31888184 54.20688965 11.63776367 54.9137793 11.96630859 55.64208984 C16.02833976 64.47406631 20.61542945 72.64807027 27 80 C27 80.66 27 81.32 27 82 C27.66 82 28.32 82 29 82 C29.474375 82.804375 29.94875 83.60875 30.4375 84.4375 C33.80464694 89.73050589 39.10814926 93.20708877 44 97 C45.39798828 98.13695312 45.39798828 98.13695312 46.82421875 99.296875 C54.66792192 105.50335227 62.90735239 109.95166714 72 114 C73.07378906 114.4846875 74.14757812 114.969375 75.25390625 115.46875 C101.20425762 125.91257239 134.13385121 126.71891544 160.21484375 116.26171875 C163.93776376 114.57517855 167.63735477 112.85090401 171.3125 111.0625 C171.98313477 110.73862305 172.65376953 110.41474609 173.34472656 110.08105469 C177.76488316 107.85883916 181.30567115 105.29339394 185 102 C185.66 102.33 186.32 102.66 187 103 C186.071875 103.86625 186.071875 103.86625 185.125 104.75 C182.94384743 106.75837505 182.94384743 106.75837505 182.3203125 108.89453125 C180.28210878 112.14480286 177.11151033 113.3424657 173.75 114.9375 C173.03489258 115.28449951 172.31978516 115.63149902 171.58300781 115.98901367 C145.59873622 128.34619546 114.05282502 132.89682248 86 125 C84.77152344 124.6596875 83.54304688 124.319375 82.27734375 123.96875 C50.86181468 114.35241432 25.98857886 93.02775857 10.0546875 64.51953125 C-0.75842991 43.80609206 -3.6188704 23.95215757 -3 1 C-1 0 -1 0 0 0 Z " fill="#EFE9DF" transform="translate(10,118)"/>
<path d="M0 0 C0.66 0.33 1.32 0.66 2 1 C0.02 1.99 0.02 1.99 -2 3 C-2 3.66 -2 4.32 -2 5 C-3.96875 6.7265625 -3.96875 6.7265625 -6.5 8.625 C-7.3353125 9.25664063 -8.170625 9.88828125 -9.03125 10.5390625 C-9.6809375 11.02117188 -10.330625 11.50328125 -11 12 C-9.68 12.33 -8.36 12.66 -7 13 C-9.38420096 15.92916118 -11.71638001 18.7182277 -14.3984375 21.3828125 C-28.0099219 35.07604755 -37.3996469 52.44814292 -42.9375 70.875 C-43.13674072 71.52734619 -43.33598145 72.17969238 -43.54125977 72.85180664 C-46.27511826 82.58395353 -46.14235047 92.65705215 -46.0625 102.6875 C-46.05798828 103.78255859 -46.05347656 104.87761719 -46.04882812 106.00585938 C-46.03719156 108.67063309 -46.02084564 111.33528517 -46 114 C-47.32 114 -48.64 114 -50 114 C-50.495 103.605 -50.495 103.605 -51 93 C-52.98 93.99 -52.98 93.99 -55 95 C-55.60539756 66.22768458 -41.29784794 38.18733031 -21.76171875 17.7890625 C-15.02667726 10.98733743 -8.16178814 5.02718835 0 0 Z " fill="#F2ECE2" transform="translate(62,24)"/>
<path d="M0 0 C2.0625 1.75 2.0625 1.75 4 4 C3.6875 6 3.6875 6 3 8 C3.20625 8.61875 3.4125 9.2375 3.625 9.875 C4.20180876 13.14358299 2.54054893 15.16538997 1 18 C1 18.66 1 19.32 1 20 C1.66 20 2.32 20 3 20 C3.33 19.34 3.66 18.68 4 18 C7 16 7 16 11 16 C11.680625 15.79375 12.36125 15.5875 13.0625 15.375 C15 15 15 15 18 17 C19.01965427 19.32481174 20.02059602 21.65794699 21 24 C21.66 24.33 22.32 24.66 23 25 C24.1875 27.375 24.1875 27.375 25 30 C24.505 31.485 24.505 31.485 24 33 C23.21625 32.814375 22.4325 32.62875 21.625 32.4375 C19.02910225 31.74037734 19.02910225 31.74037734 17 33 C15.35 31.35 13.7 29.7 12 28 C11.67 28.66 11.34 29.32 11 30 C9.02111039 30.72693904 7.02045442 31.39816251 5 32 C4.39865234 31.1646875 4.39865234 31.1646875 3.78515625 30.3125 C-0.09119327 25.10887434 -4.17037955 20.85287379 -9.1796875 16.7265625 C-11 15 -11 15 -12 12 C-11.34 11.67 -10.68 11.34 -10 11 C-10 10.01 -10 9.02 -10 8 C-9.01 8 -8.02 8 -7 8 C-6.71125 7.21625 -6.4225 6.4325 -6.125 5.625 C-5 3 -5 3 -3 1 C-2.01 0.67 -1.02 0.34 0 0 Z " fill="#463522" transform="translate(204,43)"/>
<path d="M0 0 C7.45088966 2.77120808 13.61379994 7.4210956 19.4921875 12.703125 C21.1797903 14.207988 21.1797903 14.207988 24 16 C23.67 16.66 23.34 17.32 23 18 C23 18.33 23 18.66 23 19 C24.64639965 20.35827971 26.31295807 21.69254251 28 23 C27.34 22.01 26.68 21.02 26 20 C29.33002846 21.42926 31.35827509 23.16642265 33.75 25.875 C34.36359375 26.55304687 34.9771875 27.23109375 35.609375 27.9296875 C37 30 37 30 37 34 C37.33 34.99 37.66 35.98 38 37 C35.37371875 38.40693638 32.94887797 39.49157276 30 40 C29.505 39.505 29.505 39.505 29 39 C28.54625 39.495 28.0925 39.99 27.625 40.5 C26 42 26 42 24 42 C23.67 41.01 23.34 40.02 23 39 C23.495 38.236875 23.99 37.47375 24.5 36.6875 C26.39308427 33.29572401 25.82217225 31.69977512 25 28 C25.33 27.34 25.66 26.68 26 26 C23.32314652 23.79623992 23.32314652 23.79623992 21 24.0625 C18.18096801 25.38392125 17.44609036 27.30501341 16 30 C15.34 30.66 14.68 31.32 14 32 C13.67 32.99 13.34 33.98 13 35 C11.68 34.67 10.36 34.34 9 34 C8.4375 32.0625 8.4375 32.0625 8 30 C9 29 9 29 11.5625 28.9375 C12.7690625 28.9684375 12.7690625 28.9684375 14 29 C13.67 28.01 13.34 27.02 13 26 C13.99 25.34 14.98 24.68 16 24 C15.01 23.34 14.02 22.68 13 22 C13 21.34 13 20.68 13 20 C11.35 20.33 9.7 20.66 8 21 C8 20.34 8 19.68 8 19 C7.01 18.67 6.02 18.34 5 18 C4.25 16.0625 4.25 16.0625 4 14 C4.33 13.34 4.66 12.68 5 12 C4.90691463 8.51381119 4.90691463 8.51381119 4 5 C2.0431712 3.17662247 2.0431712 3.17662247 0 2 C0 1.34 0 0.68 0 0 Z M8 15 C8.33 16.32 8.66 17.64 9 19 C9 18.34 9 17.68 9 17 C9.99 17 10.98 17 12 17 C12.33 17.66 12.66 18.32 13 19 C13.33 18.01 13.66 17.02 14 16 C11.92446352 15.4465236 10.15634036 15 8 15 Z " fill="#4A3A26" transform="translate(181,21)"/>
<path d="M0 0 C0.66 0.33 1.32 0.66 2 1 C0.02 1.99 0.02 1.99 -2 3 C-2 3.66 -2 4.32 -2 5 C-3.96875 6.7265625 -3.96875 6.7265625 -6.5 8.625 C-7.3353125 9.25664063 -8.170625 9.88828125 -9.03125 10.5390625 C-9.6809375 11.02117188 -10.330625 11.50328125 -11 12 C-9.68 12.33 -8.36 12.66 -7 13 C-9.38420096 15.92916118 -11.71638001 18.7182277 -14.3984375 21.3828125 C-30.31277373 37.39273033 -39.38464085 57.42946172 -45 79 C-45.66 78.67 -46.32 78.34 -47 78 C-46.67 74.37 -46.34 70.74 -46 67 C-46.99 67.99 -46.99 67.99 -48 69 C-47.37299791 61.63272547 -44.91689983 54.6544348 -40 49 C-40.33 51.31 -40.66 53.62 -41 56 C-40.690625 55.071875 -40.38125 54.14375 -40.0625 53.1875 C-39.375 51.125 -38.6875 49.0625 -38 47 C-37.34 47 -36.68 47 -36 47 C-36.3403125 46.2265625 -36.3403125 46.2265625 -36.6875 45.4375 C-37.68130417 37.68582745 -29.86602625 29.77896411 -25.50390625 24.02734375 C-24.39512551 22.63561006 -23.20551046 21.30883992 -22 20 C-21.34 20 -20.68 20 -20 20 C-19.75378906 19.44054687 -19.50757812 18.88109375 -19.25390625 18.3046875 C-14.92092821 10.34064687 -7.71708149 4.4879481 0 0 Z " fill="#C9C3BA" transform="translate(62,24)"/>
<path d="M0 0 C1.07292131 3.27878751 0.86188899 5.35932492 0.0625 8.6875 C-4.41895045 31.80073419 1.69156032 55.27527002 14 75 C15.81601517 77.28683392 17.67803574 79.42119272 19.71484375 81.51171875 C21 83 21 83 21 85 C21.56847656 85.25007813 22.13695313 85.50015625 22.72265625 85.7578125 C25.32826512 87.1790537 27.25294757 88.86839205 29.4375 90.875 C32.54749301 93.69760092 35.67679163 96.42719352 39 99 C36.80078125 99.74609375 36.80078125 99.74609375 34 100 C31.60546875 98.41015625 31.60546875 98.41015625 29.1875 96.0625 C28.31996094 95.22847656 27.45242187 94.39445312 26.55859375 93.53515625 C25.71425781 92.69855469 24.86992188 91.86195313 24 91 C22.90365234 89.97712891 22.90365234 89.97712891 21.78515625 88.93359375 C17.01228428 84.39890733 13.41488736 79.61144252 10 74 C9.4225 73.09378906 8.845 72.18757813 8.25 71.25390625 C-3.2553496 52.58250917 -8.18401853 28.72990271 -4 7 C-3.34 7 -2.68 7 -2 7 C-1.34 4.69 -0.68 2.38 0 0 Z " fill="#A69E93" transform="translate(40,101)"/>
<path d="M0 0 C1.11375 0.4640625 1.11375 0.4640625 2.25 0.9375 C4.5123958 1.81160747 6.64974079 2.44256673 9 3 C8.35675781 3.17015625 7.71351562 3.3403125 7.05078125 3.515625 C-10.66726676 8.26739822 -26.19008811 13.45660731 -40.44921875 25.21484375 C-43.07188729 27.0503101 -44.85106772 27.64255363 -48 28 C-48 25 -48 25 -46.5390625 23.39453125 C-45.90742187 22.87246094 -45.27578125 22.35039063 -44.625 21.8125 C-43.68527344 21.01779297 -43.68527344 21.01779297 -42.7265625 20.20703125 C-41 19 -41 19 -39 19 C-39 18.34 -39 17.68 -39 17 C-32.04856971 9.00585516 -19.92575044 4.12477329 -10 1 C-8.68 1 -7.36 1 -6 1 C-6 1.66 -6 2.32 -6 3 C-4.02 2.67 -2.04 2.34 0 2 C0 1.34 0 0.68 0 0 Z " fill="#F3EDE4" transform="translate(99,10)"/>
<path d="M0 0 C-0.33 0.66 -0.66 1.32 -1 2 C-0.06027344 2.14695313 -0.06027344 2.14695313 0.8984375 2.296875 C1.71570313 2.44640625 2.53296875 2.5959375 3.375 2.75 C4.59316406 2.95882812 4.59316406 2.95882812 5.8359375 3.171875 C8 4 8 4 9.1015625 5.953125 C9.39804688 6.62859375 9.69453125 7.3040625 10 8 C12.95377498 10.36980013 12.95377498 10.36980013 17 10 C17.33 10.66 17.66 11.32 18 12 C18.99 12.66 19.98 13.32 21 14 C20.34 14.66 19.68 15.32 19 16 C18.67 16.99 18.34 17.98 18 19 C17.21625 19.12375 16.4325 19.2475 15.625 19.375 C12.85942178 19.79117993 12.85942178 19.79117993 11 22 C9.39320484 20.89966185 7.78966207 19.79457336 6.1875 18.6875 C5.29417969 18.07261719 4.40085938 17.45773438 3.48046875 16.82421875 C1.43899254 15.32284963 -0.28462787 13.85214599 -2 12 C-1.34 11.34 -0.68 10.68 0 10 C-0.99 9.34 -1.98 8.68 -3 8 C-3.36442233 6.33985384 -3.69972883 4.67293936 -4 3 C-4.66 2.67 -5.32 2.34 -6 2 C-6 1.34 -6 0.68 -6 0 C-2.25 -1.125 -2.25 -1.125 0 0 Z M12 5 C13.65 5 15.3 5 17 5 C17.33 5.66 17.66 6.32 18 7 C17.34 7.66 16.68 8.32 16 9 C16 8.34 16 7.68 16 7 C15.01 7 14.02 7 13 7 C12.67 7.66 12.34 8.32 12 9 C12 7.68 12 6.36 12 5 Z " fill="#463622" transform="translate(177,31)"/>
<path d="M0 0 C-0.33 0.66 -0.66 1.32 -1 2 C-0.34 2.66 0.32 3.32 1 4 C-3.47286572 5.1815117 -7.86698558 6.15401744 -12.4375 6.875 C-17.72555552 7.7908085 -22.23264788 9.5751246 -27 12 C-26.16666667 14.16666667 -26.16666667 14.16666667 -24 15 C-24.33 16.32 -24.66 17.64 -25 19 C-27.12472576 19.05386629 -29.24983652 19.09273071 -31.375 19.125 C-32.55835937 19.14820312 -33.74171875 19.17140625 -34.9609375 19.1953125 C-38 19 -38 19 -40 17 C-39.505 15.515 -39.505 15.515 -39 14 C-36.4375 12.8125 -36.4375 12.8125 -34 12 C-34 11.34 -34 10.68 -34 10 C-33.67 9.01 -33.34 8.02 -33 7 C-31.11743164 6.14038086 -31.11743164 6.14038086 -28.66015625 5.46484375 C-27.76103516 5.21283203 -26.86191406 4.96082031 -25.93554688 4.70117188 C-24.98744141 4.44916016 -24.03933594 4.19714844 -23.0625 3.9375 C-22.14919922 3.68162109 -21.23589844 3.42574219 -20.29492188 3.16210938 C-3.12794529 -1.56397264 -3.12794529 -1.56397264 0 0 Z " fill="#463622" transform="translate(120,11)"/>
<path d="M0 0 C1.8889858 3.51285078 2.36416349 6.25050691 2.625 10.25 C2.69976562 11.32765625 2.77453125 12.4053125 2.8515625 13.515625 C2.92503906 14.74539062 2.92503906 14.74539062 3 16 C3.33 16 3.66 16 4 16 C4 18.97 4 21.94 4 25 C4.99 25.33 5.98 25.66 7 26 C7.33 29.63 7.66 33.26 8 37 C8.66 37 9.32 37 10 37 C10.10957031 37.84304687 10.21914063 38.68609375 10.33203125 39.5546875 C10.49058594 40.65039062 10.64914063 41.74609375 10.8125 42.875 C10.96332031 43.96554688 11.11414062 45.05609375 11.26953125 46.1796875 C11.74665741 49.31238846 11.74665741 49.31238846 15 51 C15.1875 54.125 15.1875 54.125 15 57 C13.02 57.495 13.02 57.495 11 58 C11 57.34 11 56.68 11 56 C10.34 56 9.68 56 9 56 C7 49.125 7 49.125 7 48 C6.34 47.34 5.68 46.68 5 46 C-0.75622193 31.24891311 -0.62921499 15.55613052 0 0 Z " fill="#493B2E" transform="translate(10,113)"/>
<path d="M0 0 C1.32 0.33 2.64 0.66 4 1 C5.66957232 7.51396129 6.26029841 13.35482129 6.125 20.0625 C6.11597656 20.92810547 6.10695312 21.79371094 6.09765625 22.68554688 C6.07439723 24.79048779 6.03854008 26.89528342 6 29 C5.67 28.01 5.34 27.02 5 26 C4.34 26 3.68 26 3 26 C2.67 25.01 2.34 24.02 2 23 C1.87882813 24.05960938 1.75765625 25.11921875 1.6328125 26.2109375 C1.46399248 27.59901324 1.29469692 28.98703119 1.125 30.375 C1.04636719 31.07367188 0.96773437 31.77234375 0.88671875 32.4921875 C0.2265625 37.7734375 0.2265625 37.7734375 -2 40 C-2.02505615 39.26362305 -2.0501123 38.52724609 -2.07592773 37.76855469 C-2.19204273 34.42886622 -2.31469918 31.08944903 -2.4375 27.75 C-2.47681641 26.59113281 -2.51613281 25.43226562 -2.55664062 24.23828125 C-2.59853516 23.12324219 -2.64042969 22.00820312 -2.68359375 20.859375 C-2.73858032 19.31975098 -2.73858032 19.31975098 -2.79467773 17.74902344 C-2.97348563 15.35499619 -3.37101035 13.30376932 -4 11 C-4.06548492 9.41788427 -4.08578381 7.83329919 -4.0625 6.25 C-4.05347656 5.45078125 -4.04445312 4.6515625 -4.03515625 3.828125 C-4.02355469 3.22484375 -4.01195312 2.6215625 -4 2 C-2.68 2 -1.36 2 0 2 C0 1.34 0 0.68 0 0 Z " fill="#473624" transform="translate(233,98)"/>
<path d="M0 0 C3.10287662 9.30862986 -2.6040586 21.03443832 -6.6875 29.3125 C-9.06370531 33.97489589 -9.06370531 33.97489589 -10.22143555 36.16918945 C-11.19567036 38.12854296 -11.19567036 38.12854296 -11 41 C-11 41.66 -11 42.32 -11 43 C-11.66 43 -12.32 43 -13 43 C-13 43.66 -13 44.32 -13 45 C-13.66 45 -14.32 45 -15 45 C-15 45.66 -15 46.32 -15 47 C-15.66 47 -16.32 47 -17 47 C-17 47.66 -17 48.32 -17 49 C-18.03125 49.185625 -19.0625 49.37125 -20.125 49.5625 C-24.86674262 50.86623779 -27.19309799 54.15464707 -30 58 C-30.66 57.34 -31.32 56.68 -32 56 C-31.38125 55.41605469 -31.38125 55.41605469 -30.75 54.8203125 C-15.4214819 39.97081059 -7.6888102 22.94970762 -1.61328125 2.77148438 C-1 1 -1 1 0 0 Z " fill="#483826" transform="translate(227,138)"/>
<path d="M0 0 C2 3 2 3 1.75390625 4.9296875 C0.96264432 7.10258294 0.02086382 9.08252915 -1.0625 11.125 C-2.60894329 13.91463805 -2.60894329 13.91463805 -3 17 C-3.5826853 20.96226003 -4.87942711 24.44509824 -6.37890625 28.1328125 C-7.15781609 30.14647797 -7.15781609 30.14647797 -7 33 C-7 38.26259143 -11.59238212 42.40908727 -15 46 C-16.6280092 47.38026867 -18.28043882 48.73561678 -20 50 C-20.33 48.68 -20.66 47.36 -21 46 C-20.38125 45.773125 -19.7625 45.54625 -19.125 45.3125 C-16.77279369 44.15068028 -16.77279369 44.15068028 -16 41.5 C-15 39 -15 39 -12.875 37.6875 C-12.25625 37.460625 -11.6375 37.23375 -11 37 C-11.495 35.515 -11.495 35.515 -12 34 C-11.0421975 31.64903024 -10.03842565 29.31648799 -9 27 C-8.17484518 23.77439479 -8 21.38063619 -8 18 C-8.66 17.67 -9.32 17.34 -10 17 C-8.70966095 14.72840311 -7.41778598 12.45770375 -6.125 10.1875 C-5.76019531 9.54490234 -5.39539063 8.90230469 -5.01953125 8.24023438 C-3.41916099 5.43231202 -1.79357134 2.69035702 0 0 Z " fill="#50402E" transform="translate(226,161)"/>
<path d="M0 0 C0.99 0 1.98 0 3 0 C1.24797359 7.10781445 -1.03157945 13.8261157 -3.7265625 20.62890625 C-5.75629935 26.00210535 -7.38580377 31.49008996 -9 37 C-9.66 36.67 -10.32 36.34 -11 36 C-10.67 32.37 -10.34 28.74 -10 25 C-10.66 25.66 -11.32 26.32 -12 27 C-11.37299791 19.63272547 -8.91689983 12.6544348 -4 7 C-4.33 9.31 -4.66 11.62 -5 14 C-4.690625 13.071875 -4.38125 12.14375 -4.0625 11.1875 C-3.375 9.125 -2.6875 7.0625 -2 5 C-1.34 5 -0.68 5 0 5 C-0.2784375 4.0409375 -0.2784375 4.0409375 -0.5625 3.0625 C-0.706875 2.381875 -0.85125 1.70125 -1 1 C-0.67 0.67 -0.34 0.34 0 0 Z " fill="#BFBAB3" transform="translate(26,66)"/>
<path d="M0 0 C0.66 0.99 1.32 1.98 2 3 C1.2421875 5.9609375 1.2421875 5.9609375 -0.125 9.375 C-0.56070313 10.49648437 -0.99640625 11.61796875 -1.4453125 12.7734375 C-2.97935732 15.95715867 -4.73890318 18.30514175 -7 21 C-7.495 22.03125 -7.99 23.0625 -8.5 24.125 C-10.02708122 27.05190567 -11.23392773 28.28312755 -14 30 C-14 26.38481384 -13.74659381 24.03564342 -12.5625 20.625 C-11.19472244 16.6736426 -10 13.20751544 -10 9 C-9.34 8.01 -8.68 7.02 -8 6 C-5.69 6.33 -3.38 6.66 -1 7 C-0.67 4.69 -0.34 2.38 0 0 Z " fill="#C9C3BA" transform="translate(232,167)"/>
<path d="M0 0 C0.66 0.33 1.32 0.66 2 1 C2 1.99 2 2.98 2 4 C2.99 3.67 3.98 3.34 5 3 C7.62189657 6.01032569 9.63087472 9.05572006 11.5 12.5625 C13.31067982 15.93720356 15.17272898 18.38215646 18 21 C18 21.66 18 22.32 18 23 C17.01 23 16.02 23 15 23 C14.67 23.99 14.34 24.98 14 26 C10.46213554 22.76099624 7.92150205 19.09021741 5.375 15.0625 C4.98054688 14.45470703 4.58609375 13.84691406 4.1796875 13.22070312 C2.07818165 9.93000056 0.1112248 6.75855446 -1 3 C-0.67 2.01 -0.34 1.02 0 0 Z " fill="#594A39" transform="translate(24,174)"/>
<path d="M0 0 C0.66 0.33 1.32 0.66 2 1 C1.50628906 1.48210938 1.01257813 1.96421875 0.50390625 2.4609375 C-0.45708984 3.40839844 -0.45708984 3.40839844 -1.4375 4.375 C-2.07558594 5.00148438 -2.71367188 5.62796875 -3.37109375 6.2734375 C-5.07882176 7.91723061 -5.07882176 7.91723061 -6 10 C-6.66 10 -7.32 10 -8 10 C-8.226875 10.53625 -8.45375 11.0725 -8.6875 11.625 C-10.05678564 14.10275497 -11.73984378 16.08472614 -13.5625 18.23828125 C-18.51765936 24.31104449 -21.71047719 29.03812281 -22 37 C-22.66 37 -23.32 37 -24 37 C-24.1546875 38.6396875 -24.1546875 38.6396875 -24.3125 40.3125 C-24.97307727 43.85559629 -25.2027092 44.93243723 -28 47 C-27.505 44.03 -27.505 44.03 -27 41 C-27.66 41.66 -28.32 42.32 -29 43 C-29.703125 41.3984375 -29.703125 41.3984375 -30 39 C-23.53699977 23.87977106 -11.78104423 11.1657866 0 0 Z " fill="#EFE9E0" transform="translate(48,34)"/>
<path d="M0 0 C0.99 0.99 1.98 1.98 3 3 C3.33 2.34 3.66 1.68 4 1 C4.66 1 5.32 1 6 1 C6.33 1.99 6.66 2.98 7 4 C6.360625 4.226875 5.72125 4.45375 5.0625 4.6875 C2.76757003 5.84336241 2.76757003 5.84336241 2.1875 8.4375 C1.82612179 11.11939103 1.82612179 11.11939103 3 14 C2.01 14.33 1.02 14.66 0 15 C-0.61875 14.34 -1.2375 13.68 -1.875 13 C-3.75637427 10.7715451 -3.75637427 10.7715451 -6 11 C-6.33 10.67 -6.66 10.34 -7 10 C-7.99 9.67 -8.98 9.34 -10 9 C-11.25 7.125 -11.25 7.125 -12 5 C-11.67 4.01 -11.34 3.02 -11 2 C-11 2.66 -11 3.32 -11 4 C-10.34 4 -9.68 4 -9 4 C-8.67 3.34 -8.34 2.68 -8 2 C-7.01 2.66 -6.02 3.32 -5 4 C-4.34 3.01 -3.68 2.02 -3 1 C-2.01 0.67 -1.02 0.34 0 0 Z " fill="#4C3D2B" transform="translate(32,167)"/>
<path d="M0 0 C0.65597672 0.00141495 1.31195343 0.0028299 1.98780823 0.00428772 C4.05572327 0.00982594 6.12352467 0.02236623 8.19140625 0.03515625 C9.60481613 0.04017926 11.01822773 0.04474075 12.43164062 0.04882812 C15.87243193 0.05977499 19.31315797 0.07699587 22.75390625 0.09765625 C22.75390625 0.42765625 22.75390625 0.75765625 22.75390625 1.09765625 C18.79390625 1.09765625 14.83390625 1.09765625 10.75390625 1.09765625 C10.42390625 1.75765625 10.09390625 2.41765625 9.75390625 3.09765625 C9.75390625 2.43765625 9.75390625 1.77765625 9.75390625 1.09765625 C6.12390625 1.75765625 2.49390625 2.41765625 -1.24609375 3.09765625 C-1.24609375 2.43765625 -1.24609375 1.77765625 -1.24609375 1.09765625 C-4.87609375 2.08765625 -8.50609375 3.07765625 -12.24609375 4.09765625 C-9.60609375 4.09765625 -6.96609375 4.09765625 -4.24609375 4.09765625 C-4.24609375 4.42765625 -4.24609375 4.75765625 -4.24609375 5.09765625 C-5.99394204 5.46229357 -7.74449877 5.81396405 -9.49609375 6.16015625 C-10.95789063 6.45599609 -10.95789063 6.45599609 -12.44921875 6.7578125 C-15.13061845 7.08362503 -16.71651061 6.9273131 -19.24609375 6.09765625 C-19.57609375 6.09765625 -19.90609375 6.09765625 -20.24609375 6.09765625 C-21.23609375 6.09765625 -22.22609375 6.09765625 -23.24609375 6.09765625 C-23.57609375 6.75765625 -23.90609375 7.41765625 -24.24609375 8.09765625 C-24.90609375 7.76765625 -25.56609375 7.43765625 -26.24609375 7.09765625 C-26.24609375 6.10765625 -26.24609375 5.11765625 -26.24609375 4.09765625 C-24.3931254 3.61387634 -22.53864934 3.13586989 -20.68359375 2.66015625 C-19.13478516 2.25990234 -19.13478516 2.25990234 -17.5546875 1.8515625 C-11.67213725 0.51114668 -6.02911652 -0.02587604 0 0 Z " fill="#F4EEE5" transform="translate(119.24609375,5.90234375)"/>
<path d="M0 0 C0 5.40206313 -0.22220127 7.81532835 -3.25 12.3125 C-5.99897095 16.47220046 -8.57930286 20.64274515 -11 25 C-11.33 24.34 -11.66 23.68 -12 23 C-11.06553465 20.96855359 -10.06775224 18.96466413 -9 17 C-9.99 17 -10.98 17 -12 17 C-11.338056 13.27546176 -9.69037455 10.55729746 -7.6875 7.375 C-7.09324219 6.41335937 -6.49898437 5.45171875 -5.88671875 4.4609375 C-4.01818042 2.02371359 -2.83280687 1.06308425 0 0 Z " fill="#EBE6DD" transform="translate(38,49)"/>
<path d="M0 0 C-0.33 0.66 -0.66 1.32 -1 2 C-0.34 2.66 0.32 3.32 1 4 C-6.52637479 5.988099 -14.1853983 8 -22 8 C-22.33 6.68 -22.66 5.36 -23 4 C-4.27440147 -2.13720074 -4.27440147 -2.13720074 0 0 Z " fill="#564838" transform="translate(120,11)"/>
<path d="M0 0 C1.37432457 3.81756824 0.67975039 7.07255329 0 11 C0.66 11 1.32 11 2 11 C2.33794471 14.02038089 2.67048433 17.04119756 3 20.0625 C3.09539063 20.91005859 3.19078125 21.75761719 3.2890625 22.63085938 C3.81056158 27.45472589 4.10532727 32.14836264 4 37 C2.68 37 1.36 37 0 37 C-0.03758423 36.07719238 -0.03758423 36.07719238 -0.07592773 35.13574219 C-0.19218487 32.34029844 -0.31477642 29.54516702 -0.4375 26.75 C-0.47681641 25.78191406 -0.51613281 24.81382813 -0.55664062 23.81640625 C-0.59853516 22.88183594 -0.64042969 21.94726562 -0.68359375 20.984375 C-0.72025146 20.12553711 -0.75690918 19.26669922 -0.79467773 18.38183594 C-0.98763222 16.14347215 -1.43952387 14.16847243 -2 12 C-2.24920361 7.43126709 -2.00497739 4.13526586 0 0 Z " fill="#BCB5AC" transform="translate(12,101)"/>
<path d="M0 0 C1.28691243 3.86073728 0.50821894 6.86678522 -0.25 10.75 C-0.37246094 11.4409375 -0.49492187 12.131875 -0.62109375 12.84375 C-1.77703524 18.93247153 -3.30234888 24.69381981 -8 29 C-9.03357147 30.64605826 -10.04060332 32.30963442 -11 34 C-12.12051367 31.23167212 -12.06236707 30.16037246 -10.9609375 27.328125 C-10.17589844 25.80445313 -10.17589844 25.80445313 -9.375 24.25 C-6.48950341 18.33103263 -4.4141302 12.43069277 -2.56201172 6.11816406 C-1.08059254 1.08059254 -1.08059254 1.08059254 0 0 Z " fill="#4F3F2F" transform="translate(227,138)"/>
<path d="M0 0 C0.763125 0.350625 1.52625 0.70125 2.3125 1.0625 C5.04759379 2.32360884 5.04759379 2.32360884 8 1 C6.71513755 4.85458735 5.02739743 5.71837216 1.75 8.0625 C0.79609375 8.75472656 -0.1578125 9.44695313 -1.140625 10.16015625 C-4.64589303 12.41559511 -8.06715191 13.68905064 -12 15 C-12 12 -12 12 -10.5390625 10.39453125 C-9.90742187 9.87246094 -9.27578125 9.35039063 -8.625 8.8125 C-7.99851562 8.28269531 -7.37203125 7.75289062 -6.7265625 7.20703125 C-5 6 -5 6 -3 6 C-3 5.34 -3 4.68 -3 4 C-2.0206121 2.97980427 -1.02104551 1.97850195 0 1 C0 0.67 0 0.34 0 0 Z " fill="#EBE5DC" transform="translate(63,23)"/>
<path d="M0 0 C0.66 1.65 1.32 3.3 2 5 C-0.31 5.66 -2.62 6.32 -5 7 C-3.33075929 10.04134491 -3.33075929 10.04134491 -1 11 C-1.639375 11.12375 -2.27875 11.2475 -2.9375 11.375 C-3.618125 11.58125 -4.29875 11.7875 -5 12 C-5.33 12.66 -5.66 13.32 -6 14 C-7.65 14 -9.3 14 -11 14 C-10.79375 12.88625 -10.5875 11.7725 -10.375 10.625 C-10.25125 9.42875 -10.1275 8.2325 -10 7 C-10.66 6.34 -11.32 5.68 -12 5 C-10.37750059 4.16180842 -8.75191503 3.3295884 -7.125 2.5 C-6.22007813 2.0359375 -5.31515625 1.571875 -4.3828125 1.09375 C-2 0 -2 0 0 0 Z " fill="#4B3A27" transform="translate(86,19)"/>
<path d="M0 0 C0 0.99 0 1.98 0 3 C-4.34285714 7 -4.34285714 7 -7 7 C-7 7.66 -7 8.32 -7 9 C-9.046875 10.65625 -9.046875 10.65625 -11.75 12.5 C-12.63171875 13.1084375 -13.5134375 13.716875 -14.421875 14.34375 C-16.57481686 15.72685204 -18.68545332 16.91843613 -21 18 C-21.33 17.01 -21.66 16.02 -22 15 C-20.68 13.68 -19.36 12.36 -18 11 C-18.33 10.01 -18.66 9.02 -19 8 C-16 7 -16 7 -14.1328125 7.68359375 C-11.8049602 8.27116737 -11.8049602 8.27116737 -9.4921875 6.34765625 C-8.62851563 5.59355469 -7.76484375 4.83945313 -6.875 4.0625 C-2.17838765 0 -2.17838765 0 0 0 Z " fill="#483927" transform="translate(204,211)"/>
<path d="M0 0 C2.31 0.66 4.62 1.32 7 2 C7 2.99 7 3.98 7 5 C7.99 5.33 8.98 5.66 10 6 C11.75 7.25 11.75 7.25 13 9 C12.6875 11.6875 12.6875 11.6875 12 14 C8.39265062 14 7.08395729 12.82413673 4.4296875 10.5 C1.45714912 7.38127121 0 4.2764846 0 0 Z " fill="#4C3C2A" transform="translate(38,196)"/>
<path d="M0 0 C1.25375479 3.3433461 0.76760916 6.11616224 0.25390625 9.58203125 C-0.1515229 13.44296419 -0.01879898 17.29102353 0.0625 21.16796875 C0.00207751 23.90586289 -0.37734007 26.33910169 -1 29 C-1.33 29 -1.66 29 -2 29 C-2 26.69 -2 24.38 -2 22 C-2.66 22 -3.32 22 -4 22 C-4.10806144 19.08234109 -4.18732877 16.16868875 -4.25 13.25 C-4.28351562 12.425 -4.31703125 11.6 -4.3515625 10.75 C-4.45112665 4.57702246 -4.45112665 4.57702246 -1.984375 1.421875 C-1.32953125 0.95265625 -0.6746875 0.4834375 0 0 Z " fill="#DCD6CD" transform="translate(16,90)"/>
<path d="M0 0 C1.31733257 3.67282789 0.6062447 5.99032434 -0.4375 9.6875 C-2.99124858 20.61057915 -2.25603084 31.85281107 -2 43 C-2.33 43 -2.66 43 -3 43 C-4.43410809 35.6373915 -5.19404096 28.55108429 -5.1875 21.0625 C-5.18814453 20.35359619 -5.18878906 19.64469238 -5.18945312 18.91430664 C-5.14718121 14.84803622 -4.78045858 10.98970425 -4 7 C-3.34 7 -2.68 7 -2 7 C-1.34 4.69 -0.68 2.38 0 0 Z " fill="#BEB7AD" transform="translate(40,101)"/>
<path d="M0 0 C2.475 0.99 2.475 0.99 5 2 C5 2.99 5 3.98 5 5 C7.475 5.495 7.475 5.495 10 6 C8 8 8 8 5.84521484 8.22705078 C4.97590332 8.21657715 4.1065918 8.20610352 3.2109375 8.1953125 C2.26992187 8.18886719 1.32890625 8.18242187 0.359375 8.17578125 C-0.62546875 8.15902344 -1.6103125 8.14226562 -2.625 8.125 C-3.61757812 8.11597656 -4.61015625 8.10695312 -5.6328125 8.09765625 C-8.08878134 8.07404116 -10.54427168 8.04110799 -13 8 C-13 7.67 -13 7.34 -13 7 C-10.36 6.67 -7.72 6.34 -5 6 C-5.66 5.34 -6.32 4.68 -7 4 C-5.824375 3.566875 -5.824375 3.566875 -4.625 3.125 C-1.90328368 2.15087746 -1.90328368 2.15087746 0 0 Z " fill="#4E3E2C" transform="translate(134,234)"/>
<path d="M0 0 C0.33 0 0.66 0 1 0 C1.03963867 0.55236328 1.07927734 1.10472656 1.12011719 1.67382812 C1.95161945 12.76358759 3.19719952 23.24685911 6.29296875 33.9453125 C7 37 7 37 6 40 C3.45755829 38.72877915 3.36915441 37.95137453 2.4375 35.3125 C-1.06495296 24.09757487 -0.13608947 11.64321043 0 0 Z " fill="#7B7064" transform="translate(37,119)"/>
<path d="M0 0 C0 0.66 0 1.32 0 2 C1.32 2.66 2.64 3.32 4 4 C3.67 4.66 3.34 5.32 3 6 C6.465 5.505 6.465 5.505 10 5 C10 5.66 10 6.32 10 7 C10.66 7.66 11.32 8.32 12 9 C10.42551802 8.79006907 8.85171235 8.57408138 7.28125 8.3359375 C5.57668216 8.08492237 3.86730336 7.86619243 2.15625 7.6640625 C1.1765625 7.52742188 0.196875 7.39078125 -0.8125 7.25 C-1.74707031 7.13140625 -2.68164062 7.0128125 -3.64453125 6.890625 C-6 6 -6 6 -7.32421875 3.421875 C-7.54722656 2.62265625 -7.77023438 1.8234375 -8 1 C-5.29120665 -0.35439668 -2.99066732 -0.06501451 0 0 Z " fill="#5B4C3C" transform="translate(146,27)"/>
<path d="M0 0 C4.7387987 1.28299354 7.52260592 2.99779519 11.0625 6.375 C14.27471725 9.4096065 17.51557372 12.27953884 21 15 C18.80859375 15.75 18.80859375 15.75 16 16 C13.53515625 14.375 13.53515625 14.375 11.0625 12 C10.20011719 11.17628906 9.33773437 10.35257813 8.44921875 9.50390625 C5.46067129 6.44862886 2.68678008 3.32312273 0 0 Z " fill="#A39C94" transform="translate(58,185)"/>
<path d="M0 0 C7.45088966 2.77120808 13.61379994 7.4210956 19.4921875 12.703125 C21.1797903 14.207988 21.1797903 14.207988 24 16 C23.67 16.66 23.34 17.32 23 18 C15.12993039 14.88167053 15.12993039 14.88167053 13 12 C13 11.34 13 10.68 13 10 C12.43796875 9.731875 11.8759375 9.46375 11.296875 9.1875 C8.84449354 7.9196021 6.56072317 6.51027658 4.25 5 C3.45078125 4.484375 2.6515625 3.96875 1.828125 3.4375 C0.92320312 2.7259375 0.92320312 2.7259375 0 2 C0 1.34 0 0.68 0 0 Z " fill="#766A5C" transform="translate(181,21)"/>
<path d="M0 0 C0 0.66 0 1.32 0 2 C-0.66 2 -1.32 2 -2 2 C-2 2.66 -2 3.32 -2 4 C-2.65162109 4.63615234 -2.65162109 4.63615234 -3.31640625 5.28515625 C-6.11984911 8.14063517 -7.59665102 11.769436 -9.40234375 15.30859375 C-10.99889613 17.99814042 -12.70008381 19.89878067 -15 22 C-15 17.60958686 -13.04495254 14.35734293 -11.1875 10.4375 C-10.83107422 9.65697266 -10.47464844 8.87644531 -10.10742188 8.07226562 C-9.75615234 7.32525391 -9.40488281 6.57824219 -9.04296875 5.80859375 C-8.72352295 5.12595459 -8.40407715 4.44331543 -8.07495117 3.73999023 C-5.87764209 0.18327394 -4.04751835 0 0 0 Z " fill="#DCD6CD" transform="translate(230,157)"/>
<path d="M0 0 C0 7.19263438 -3.14538016 10.88425147 -8 16 C-9.6280092 17.38026867 -11.28043882 18.73561678 -13 20 C-13.33 18.68 -13.66 17.36 -14 16 C-13.38125 15.773125 -12.7625 15.54625 -12.125 15.3125 C-9.77279369 14.15068028 -9.77279369 14.15068028 -9 11.5 C-8 9 -8 9 -5.875 7.6875 C-4.946875 7.3471875 -4.946875 7.3471875 -4 7 C-4.33 6.01 -4.66 5.02 -5 4 C-3.36587557 2.29159719 -2.13093906 1.06546953 0 0 Z " fill="#72675A" transform="translate(219,191)"/>
<path d="M0 0 C2.45873768 0.14058476 4.91685175 0.28722999 7.375 0.4375 C8.07367188 0.47681641 8.77234375 0.51613281 9.4921875 0.55664062 C14.7734375 0.88671875 14.7734375 0.88671875 17 2 C17 2.66 17 3.32 17 4 C19.64 4 22.28 4 25 4 C25 4.33 25 4.66 25 5 C16.4488728 5.27733386 8.41518047 4.52016163 0 3 C0 2.01 0 1.02 0 0 Z " fill="#CEC8BE" transform="translate(111,214)"/>
<path d="M0 0 C3.14910568 1.53776422 6.21127309 3.1915648 9.25 4.9375 C10.14203125 5.44152344 11.0340625 5.94554687 11.953125 6.46484375 C12.62859375 6.97144531 13.3040625 7.47804687 14 8 C14 8.99 14 9.98 14 11 C10.09948614 11 8.21937617 9.59939075 4.875 7.625 C3.26238281 6.68527344 3.26238281 6.68527344 1.6171875 5.7265625 C-1 4 -1 4 -2 2 C-1.34 2 -0.68 2 0 2 C0 1.34 0 0.68 0 0 Z " fill="#5C4E40" transform="translate(61,217)"/>
<path d="M0 0 C1 3 1 3 -0.25 5.8125 C-1.41666667 7.9375 -2.58333333 10.0625 -3.75 12.1875 C-5.37626639 14.99498311 -5.37626639 14.99498311 -4 18 C-4.66 18 -5.32 18 -6 18 C-6 18.66 -6 19.32 -6 20 C-6.66 20 -7.32 20 -8 20 C-8 20.66 -8 21.32 -8 22 C-8.66 21.67 -9.32 21.34 -10 21 C-9.01 19.02 -8.02 17.04 -7 15 C-7.99 14.67 -8.98 14.34 -10 14 C-8.68 11.69 -7.36 9.38 -6 7 C-5.34 7.33 -4.68 7.66 -4 8 C-2.68 5.36 -1.36 2.72 0 0 Z " fill="#483828" transform="translate(220,163)"/>
<path d="M0 0 C0.66666667 1.33333333 1.33333333 2.66666667 2 4 C2.350625 4.66 2.70125 5.32 3.0625 6 C4.00788828 8.01682833 4.63388933 9.80333598 5 12 C4.67 12.66 4.34 13.32 4 14 C3.01 14.33 2.02 14.66 1 15 C1 14.34 1 13.68 1 13 C0.34 13 -0.32 13 -1 13 C-3.125 6.375 -3.125 6.375 -2 3 C-1.34 3 -0.68 3 0 3 C0 2.01 0 1.02 0 0 Z " fill="#665747" transform="translate(20,156)"/>
<path d="M0 0 C6.64277148 -0.45291624 15.66812439 0.12310741 20.859375 4.60546875 C21.23578125 5.06566406 21.6121875 5.52585937 22 6 C20.906875 5.814375 19.81375 5.62875 18.6875 5.4375 C15.06375867 4.7421932 15.06375867 4.7421932 12 6 C9.64811553 5.40206327 7.31074405 4.74118205 5 4 C5 3.34 5 2.68 5 2 C3.35 1.67 1.7 1.34 0 1 C0 0.67 0 0.34 0 0 Z " fill="#E2DBD2" transform="translate(142,7)"/>
<path d="M0 0 C1.89525837 6.04869693 -0.98054085 12.23011672 -3 18 C-3.66 18 -4.32 18 -5 18 C-5.66 18.66 -6.32 19.32 -7 20 C-6.36598438 12.55031652 -3.32420218 6.60368416 0 0 Z " fill="#B4ADA5" transform="translate(21,73)"/>
<path d="M0 0 C1.65 0.33 3.3 0.66 5 1 C5 1.99 5 2.98 5 4 C4.34 4 3.68 4 3 4 C3 4.66 3 5.32 3 6 C3.66 6 4.32 6 5 6 C5.33 7.32 5.66 8.64 6 10 C0.58657319 8.85485202 -1.9342948 7.65987191 -5 3 C-3.35 2.67 -1.7 2.34 0 2 C0 1.34 0 0.68 0 0 Z " fill="#534432" transform="translate(78,223)"/>
<path d="M0 0 C2 3 2 3 1.75390625 4.921875 C0.95371785 7.12757567 0.01444754 9.16558541 -1.0625 11.25 C-1.42472656 11.95640625 -1.78695312 12.6628125 -2.16015625 13.390625 C-2.43730469 13.92171875 -2.71445313 14.4528125 -3 15 C-3.99 15 -4.98 15 -6 15 C-5.54979057 9.14727744 -2.96160773 4.91779881 0 0 Z " fill="#463624" transform="translate(226,161)"/>
<path d="M0 0 C-1.84205838 2.54379491 -3.72478134 4.83312509 -6 7 C-6.33 6.34 -6.66 5.68 -7 5 C-8.65 5.66 -10.3 6.32 -12 7 C-12.33 5.68 -12.66 4.36 -13 3 C-8.1942374 -0.17180332 -5.81427302 -1.70173845 0 0 Z " fill="#CDC6BD" transform="translate(78,19)"/>
<path d="M0 0 C0.66 0 1.32 0 2 0 C2.33 1.32 2.66 2.64 3 4 C3.99 4 4.98 4 6 4 C6.66 3.34 7.32 2.68 8 2 C10 4 10 4 10 8 C5.37078475 9.0161692 1.65537393 8.83796731 -3 8 C-2.67 7.34 -2.34 6.68 -2 6 C-1.01 6 -0.02 6 1 6 C1 5.34 1 4.68 1 4 C0.34 3.67 -0.32 3.34 -1 3 C-0.67 2.01 -0.34 1.02 0 0 Z " fill="#4B3A27" transform="translate(109,232)"/>
<path d="M0 0 C0.12375 0.639375 0.2475 1.27875 0.375 1.9375 C0.684375 2.9584375 0.684375 2.9584375 1 4 C1.66 4.33 2.32 4.66 3 5 C3 5.99 3 6.98 3 8 C3.66 8.33 4.32 8.66 5 9 C4.01 10.32 3.02 11.64 2 13 C1.01 11.35 0.02 9.7 -1 8 C-1.33 8.66 -1.66 9.32 -2 10 C-2.99 9.67 -3.98 9.34 -5 9 C-4.67 7.68 -4.34 6.36 -4 5 C-3.34 5 -2.68 5 -2 5 C-1.7834375 4.0409375 -1.7834375 4.0409375 -1.5625 3.0625 C-1 1 -1 1 0 0 Z " fill="#42311E" transform="translate(224,80)"/>
<path d="M0 0 C1.33417969 -0.00386719 1.33417969 -0.00386719 2.6953125 -0.0078125 C4.875 0.125 4.875 0.125 5.875 1.125 C8.54558851 1.26615161 11.19932238 1.16747107 13.875 1.125 C13.875 1.455 13.875 1.785 13.875 2.125 C12.12715171 2.48963732 10.37659498 2.8413078 8.625 3.1875 C7.16320312 3.48333984 7.16320312 3.48333984 5.671875 3.78515625 C2.9904753 4.11096878 1.40458314 3.95465685 -1.125 3.125 C-1.455 3.125 -1.785 3.125 -2.125 3.125 C-3.115 3.125 -4.105 3.125 -5.125 3.125 C-5.455 3.785 -5.785 4.445 -6.125 5.125 C-6.785 4.795 -7.445 4.465 -8.125 4.125 C-8.125 3.135 -8.125 2.145 -8.125 1.125 C-5.14619115 0.13206372 -3.10898802 -0.00906411 0 0 Z " fill="#E9E4DC" transform="translate(101.125,8.875)"/>
<path d="M0 0 C3.75504711 1.45356662 3.75504711 1.45356662 4.8125 3.8125 C5.03322704 6.38764878 4.62444329 8.50222685 4 11 C3.67 10.34 3.34 9.68 3 9 C2.34 8.67 1.68 8.34 1 8 C1.33 7.34 1.66 6.68 2 6 C0.35 6.33 -1.3 6.66 -3 7 C-3.66 6.01 -4.32 5.02 -5 4 C-3.35 2.68 -1.7 1.36 0 0 Z " fill="#453421" transform="translate(182,24)"/>
<path d="M0 0 C1.11375 0.4640625 1.11375 0.4640625 2.25 0.9375 C4.5123958 1.81160747 6.64974079 2.44256673 9 3 C1.84224277 5.28612778 -4.48193151 6.44032071 -12 6 C-10.25 3.9375 -10.25 3.9375 -8 2 C-6 2.3125 -6 2.3125 -4 3 C-1.81296615 2.62092718 -1.81296615 2.62092718 0 2 C0 1.34 0 0.68 0 0 Z " fill="#BCB5AA" transform="translate(99,10)"/>
<path d="M0 0 C0 3.34052401 -0.6562618 4.61975023 -2.25 7.5 C-2.66765625 8.2734375 -3.0853125 9.046875 -3.515625 9.84375 C-5.09810101 12.14250463 -6.69104274 13.46069516 -9 15 C-9 11.03405856 -8.76315649 8.61911068 -7 5 C-6.01 4.67 -5.02 4.34 -4 4 C-2.62804426 2.70644173 -1.28817344 1.37701298 0 0 Z " fill="#BEB7AE" transform="translate(227,182)"/>
<path d="M0 0 C3.20767401 4.81151102 3.47235115 9.26587669 3 15 C2 18.5 2 18.5 1 21 C0.67 21 0.34 21 0 21 C0 14.07 0 7.14 0 0 Z " fill="#685A4B" transform="translate(231,117)"/>
<path d="M0 0 C-0.33 0.66 -0.66 1.32 -1 2 C-0.34 2.66 0.32 3.32 1 4 C-1.40545638 5.20272819 -2.94996953 5.10071472 -5.625 5.0625 C-6.85089844 5.04896484 -6.85089844 5.04896484 -8.1015625 5.03515625 C-9.04128906 5.01775391 -9.04128906 5.01775391 -10 5 C-10 3.35 -10 1.7 -10 0 C-2.25 -1.125 -2.25 -1.125 0 0 Z " fill="#564839" transform="translate(120,11)"/>
<path d="M0 0 C-0.375 2.4375 -0.375 2.4375 -1 5 C-1.99 5.495 -1.99 5.495 -3 6 C-3 5.01 -3 4.02 -3 3 C-3.99 4.485 -3.99 4.485 -5 6 C-7.475 5.01 -7.475 5.01 -10 4 C-10 3.34 -10 2.68 -10 2 C-9.34 2 -8.68 2 -8 2 C-8 1.34 -8 0.68 -8 0 C-5.13822943 -1.43088528 -3.06624227 -0.59991697 0 0 Z " fill="#544432" transform="translate(164,14)"/>
<path d="M0 0 C0.99 0 1.98 0 3 0 C3.45375 0.66 3.9075 1.32 4.375 2 C4.91125 2.66 5.4475 3.32 6 4 C8.62625139 4.33425735 8.62625139 4.33425735 11 4 C11.33 5.65 11.66 7.3 12 9 C5.25 8.125 5.25 8.125 3 7 C3 6.01 3 5.02 3 4 C2.01 3.34 1.02 2.68 0 2 C0 1.34 0 0.68 0 0 Z " fill="#594936" transform="translate(173,26)"/>
<path d="M0 0 C2.86299506 2.86299506 2.99421225 4.65852284 3.0625 8.6875 C3.041875 9.780625 3.02125 10.87375 3 12 C0 11 0 11 -0.94921875 9.15234375 C-1.19285156 8.42144531 -1.43648437 7.69054687 -1.6875 6.9375 C-1.93886719 6.20402344 -2.19023437 5.47054687 -2.44921875 4.71484375 C-2.63097656 4.14894531 -2.81273437 3.58304687 -3 3 C-2.34 3 -1.68 3 -1 3 C-0.67 2.01 -0.34 1.02 0 0 Z " fill="#584938" transform="translate(223,87)"/>
<path d="M0 0 C0.66 0.33 1.32 0.66 2 1 C2.33 1.99 2.66 2.98 3 4 C3.66 4.33 4.32 4.66 5 5 C-1.625 8.125 -1.625 8.125 -5 7 C-4.34 6.34 -3.68 5.68 -3 5 C-3.66 4.67 -4.32 4.34 -5 4 C-5 3.34 -5 2.68 -5 2 C-2.625 0.9375 -2.625 0.9375 0 0 Z " fill="#EBE5DC" transform="translate(79,15)"/>
<path d="M0 0 C0.33 0 0.66 0 1 0 C1 6.27 1 12.54 1 19 C0.67 18.01 0.34 17.02 0 16 C-0.66 16 -1.32 16 -2 16 C-2.33 13.36 -2.66 10.72 -3 8 C-2.34 8.66 -1.68 9.32 -1 10 C-1.01160156 9.36191406 -1.02320313 8.72382812 -1.03515625 8.06640625 C-1.04417969 7.24011719 -1.05320313 6.41382812 -1.0625 5.5625 C-1.07410156 4.73878906 -1.08570313 3.91507812 -1.09765625 3.06640625 C-1 1 -1 1 0 0 Z " fill="#8D8377" transform="translate(238,108)"/>
<path d="M0 0 C0.66 1.65 1.32 3.3 2 5 C-1.40562852 5.77842938 -4.50765756 6.09978121 -8 6 C-8.33 5.01 -8.66 4.02 -9 3 C-2.25 0 -2.25 0 0 0 Z " fill="#50402E" transform="translate(86,19)"/>
<path d="M0 0 C1.37432457 3.81756824 0.67975039 7.07255329 0 11 C0.66 11 1.32 11 2 11 C2 13.31 2 15.62 2 18 C1.67 17.34 1.34 16.68 1 16 C0.34 16 -0.32 16 -1 16 C-2.77641602 10.44869995 -2.53883587 5.23634898 0 0 Z " fill="#83796E" transform="translate(12,101)"/>
<path d="M0 0 C8.57142857 2.85714286 8.57142857 2.85714286 12 7 C11.01 7.495 11.01 7.495 10 8 C7.9765625 7.29296875 7.9765625 7.29296875 5.625 6.1875 C4.85414063 5.83042969 4.08328125 5.47335938 3.2890625 5.10546875 C1.18313395 4.08844182 -0.91209933 3.05348413 -3 2 C-2.01 2 -1.02 2 0 2 C0 1.34 0 0.68 0 0 Z " fill="#E8E2D8" transform="translate(176,16)"/>
<path d="M0 0 C0.99 0.33 1.98 0.66 3 1 C3.83984375 2.765625 3.83984375 2.765625 4 5 C3.00390625 7.359375 3.00390625 7.359375 1.5625 9.75 C0.85287109 10.94882813 0.85287109 10.94882813 0.12890625 12.171875 C-0.24363281 12.77515625 -0.61617187 13.3784375 -1 14 C-1.33 13.34 -1.66 12.68 -2 12 C-1.06553465 9.96855359 -0.06775224 7.96466413 1 6 C0.01 6 -0.98 6 -2 6 C-1.49396008 3.83125748 -1.00016187 2.00032373 0 0 Z " fill="#CFCAC1" transform="translate(28,60)"/>
<path d="M0 0 C-3.02272532 3.25524265 -6.25718301 5.61820737 -10 8 C-10.33 7.34 -10.66 6.68 -11 6 C-4.94863014 -1.48458904 -4.94863014 -1.48458904 0 0 Z " fill="#D6CFC6" transform="translate(67,28)"/>
<path d="M0 0 C0 0.99 0 1.98 0 3 C-4.34285714 7 -4.34285714 7 -7 7 C-7 7.66 -7 8.32 -7 9 C-8.65 9 -10.3 9 -12 9 C-3.25 0 -3.25 0 0 0 Z " fill="#625547" transform="translate(204,211)"/>
<path d="M0 0 C3.63 0 7.26 0 11 0 C11 0.33 11 0.66 11 1 C9.35 1 7.7 1 6 1 C7.32 1.66 8.64 2.32 10 3 C10 3.66 10 4.32 10 5 C9.01 5 8.02 5 7 5 C7 5.66 7 6.32 7 7 C4.2160817 5.60804085 4.02101003 3.84424221 3 1 C2.67 1.99 2.34 2.98 2 4 C1.34 2.68 0.68 1.36 0 0 Z " fill="#483722" transform="translate(111,157)"/>
<path d="M0 0 C0.33 0 0.66 0 1 0 C1 2.97 1 5.94 1 9 C1.99 9.33 2.98 9.66 4 10 C4 12.31 4 14.62 4 17 C3.34 16.34 2.68 15.68 2 15 C1.34 15.66 0.68 16.32 0 17 C-0.97040422 11.06975197 -0.89316269 5.93609666 0 0 Z " fill="#7E7469" transform="translate(13,129)"/>
<path d="M0 0 C-0.33 0.66 -0.66 1.32 -1 2 C-0.34 2.33 0.32 2.66 1 3 C1 4.98 1 6.96 1 9 C-0.32 8.67 -1.64 8.34 -3 8 C-3.12375 7.195625 -3.2475 6.39125 -3.375 5.5625 C-3.684375 4.2940625 -3.684375 4.2940625 -4 3 C-4.66 2.67 -5.32 2.34 -6 2 C-6 1.34 -6 0.68 -6 0 C-2.25 -1.125 -2.25 -1.125 0 0 Z " fill="#43321F" transform="translate(177,31)"/>
<path d="M0 0 C1.98 0.99 3.96 1.98 6 3 C5.01 3.33 4.02 3.66 3 4 C2.26639432 6.00735831 2.26639432 6.00735831 1.9375 8.375 C1.36829089 11.70351803 0.94048384 13.08927425 -1 16 C-1.66 15.67 -2.32 15.34 -3 15 C-1.68 12.36 -0.36 9.72 1 7 C0.01 6.67 -0.98 6.34 -2 6 C-1.01 5.67 -0.02 5.34 1 5 C0.67 3.35 0.34 1.7 0 0 Z " fill="#4D3C29" transform="translate(80,204)"/>
<path d="M0 0 C1.51553092 3.97450493 0.49888623 7.20481149 -0.4375 11.25 C-0.72496094 12.51328125 -1.01242188 13.7765625 -1.30859375 15.078125 C-1.53675781 16.04234375 -1.76492187 17.0065625 -2 18 C-2.66 17.67 -3.32 17.34 -4 17 C-3.45018084 10.95198929 -2.09570426 5.69398894 0 0 Z " fill="#A19A91" transform="translate(19,85)"/>
<path d="M0 0 C3.387199 1.4388102 5.3594104 3.22119499 7.75 6 C8.67039063 7.051875 8.67039063 7.051875 9.609375 8.125 C11 10 11 10 11 12 C8.00450613 11.67905423 7.04247751 11.0450519 4.9375 8.8125 C2.98187335 5.97368712 1.45235891 3.12257165 0 0 Z " fill="#8D8377" transform="translate(207,41)"/>
<path d="M0 0 C0.33 0.99 0.66 1.98 1 3 C0.01 3.495 0.01 3.495 -1 4 C-1.59070014 5.94603274 -1.59070014 5.94603274 -2 8 C-3 10 -3 10 -6.0625 11.125 C-7.031875 11.41375 -8.00125 11.7025 -9 12 C-7.79618552 9.50638429 -6.54571278 7.31856917 -5 5 C-4.34 5 -3.68 5 -3 5 C-2.690625 4.360625 -2.38125 3.72125 -2.0625 3.0625 C-1 1 -1 1 0 0 Z " fill="#C1B9AF" transform="translate(45,39)"/>
<path d="M0 0 C12.66970387 -0.18451025 12.66970387 -0.18451025 18 1 C17.67 1.99 17.34 2.98 17 4 C14.69 3.67 12.38 3.34 10 3 C10 2.34 10 1.68 10 1 C6.7 1 3.4 1 0 1 C0 0.67 0 0.34 0 0 Z " fill="#D4CDC3" transform="translate(130,7)"/>
<path d="M0 0 C0.66 0.33 1.32 0.66 2 1 C0.45941767 6.01508715 -1.02931839 10.6147081 -4 15 C-5.11346788 12.19966161 -5.03510273 11.09856297 -4.00390625 8.203125 C-3.52824219 7.22859375 -3.05257812 6.2540625 -2.5625 5.25 C-2.08941406 4.26515625 -1.61632812 3.2803125 -1.12890625 2.265625 C-0.75636719 1.51796875 -0.38382813 0.7703125 0 0 Z " fill="#837A71" transform="translate(220,157)"/>
<path d="M0 0 C4.75609756 4.26829268 4.75609756 4.26829268 5.875 7.625 C6 10 6 10 5 13 C3 10 3 10 3 6 C2.01 5.67 1.02 5.34 0 5 C-0.75 3 -0.75 3 -1 1 C-0.67 0.67 -0.34 0.34 0 0 Z " fill="#ABA299" transform="translate(219,54)"/>
<path d="M0 0 C0.66 1.32 1.32 2.64 2 4 C0.02 6.97 -1.96 9.94 -4 13 C-4.66 12.34 -5.32 11.68 -6 11 C-4.02 7.37 -2.04 3.74 0 0 Z " fill="#CBC4BB" transform="translate(220,166)"/>
<path d="M0 0 C0.99 0.66 1.98 1.32 3 2 C2.01 5.3 1.02 8.6 0 12 C-0.33 11.34 -0.66 10.68 -1 10 C-1.66 9.67 -2.32 9.34 -3 9 C-2.01 6.03 -1.02 3.06 0 0 Z " fill="#C5BFB7" transform="translate(42,88)"/>
<path d="M0 0 C3.24208567 0.35049575 4.61527704 0.56221181 6.8125 3.0625 C7.204375 3.701875 7.59625 4.34125 8 5 C5.69 5.33 3.38 5.66 1 6 C1 5.01 1 4.02 1 3 C0.01 3 -0.98 3 -2 3 C-1.34 2.67 -0.68 2.34 0 2 C0 1.34 0 0.68 0 0 Z " fill="#4F3F2C" transform="translate(139,10)"/>
<path d="M0 0 C5.94 0.99 5.94 0.99 12 2 C12 2.66 12 3.32 12 4 C10.824375 3.9690625 10.824375 3.9690625 9.625 3.9375 C7.01885039 3.81315937 7.01885039 3.81315937 5 5 C2.375 4.0625 2.375 4.0625 0 3 C0 2.01 0 1.02 0 0 Z " fill="#BEB7AD" transform="translate(94,209)"/>
<path d="M0 0 C3.1875 0.875 3.1875 0.875 6 2 C5.67 3.98 5.34 5.96 5 8 C2.36 6.02 -0.28 4.04 -3 2 C-2.01 1.34 -1.02 0.68 0 0 Z " fill="#564735" transform="translate(196,56)"/>
<path d="M0 0 C2.625 0.9375 2.625 0.9375 5 2 C4.67 2.66 4.34 3.32 4 4 C3.34 4 2.68 4 2 4 C-0.42798296 6.20035956 -2.17384779 8.26077169 -4 11 C-4.33 10.01 -4.66 9.02 -5 8 C-3.68 6.68 -2.36 5.36 -1 4 C-1.33 3.01 -1.66 2.02 -2 1 C-1.34 0.67 -0.68 0.34 0 0 Z " fill="#5E4F3F" transform="translate(187,218)"/>
<path d="M0 0 C5.53846154 -0.36923077 5.53846154 -0.36923077 7.875 1.5 C8.24625 1.995 8.6175 2.49 9 3 C8.67 3.99 8.34 4.98 8 6 C6.66402348 5.19185349 5.331275 4.37836819 4 3.5625 C3.2575 3.11003906 2.515 2.65757812 1.75 2.19140625 C1.1725 1.79824219 0.595 1.40507812 0 1 C0 0.67 0 0.34 0 0 Z " fill="#D7D1C8" transform="translate(75,200)"/>
<path d="M0 0 C1.12758089 3.38274266 0.81750262 4.76778223 0.0625 8.1875 C-0.13214844 9.08855469 -0.32679688 9.98960937 -0.52734375 10.91796875 C-0.68332031 11.60503906 -0.83929688 12.29210937 -1 13 C-1.99 13.33 -2.98 13.66 -4 14 C-3.36843005 8.94744036 -1.86540627 4.70406799 0 0 Z " fill="#6A5B4C" transform="translate(227,138)"/>
<path d="M0 0 C1.32 1.32 2.64 2.64 4 4 C2 7 2 7 -1.125 7.6875 C-2.07375 7.790625 -3.0225 7.89375 -4 8 C-2.25 4.125 -2.25 4.125 0 3 C0 2.01 0 1.02 0 0 Z " fill="#4F3F2C" transform="translate(215,53)"/>
<path d="M0 0 C0 0.66 0 1.32 0 2 C-1.74635165 2.53293835 -3.49727652 3.05090663 -5.25 3.5625 C-6.22453125 3.85253906 -7.1990625 4.14257812 -8.203125 4.44140625 C-10.96243932 4.99249836 -12.3912824 4.93789609 -15 4 C-12.02775596 2.01850397 -10.37032887 1.51201979 -6.9375 0.875 C-6.05964844 0.70742188 -5.18179688 0.53984375 -4.27734375 0.3671875 C-2 0 -2 0 0 0 Z " fill="#7D746B" transform="translate(112,32)"/>
<path d="M0 0 C0 1.32 0 2.64 0 4 C-4.29 4 -8.58 4 -13 4 C-12.67 3.34 -12.34 2.68 -12 2 C-9.78515625 1.3671875 -9.78515625 1.3671875 -7.0625 0.875 C-6.16660156 0.70742187 -5.27070312 0.53984375 -4.34765625 0.3671875 C-2 0 -2 0 0 0 Z " fill="#C8C1B7" transform="translate(118,7)"/>
<path d="M0 0 C2 3 2 3 1.75 4.875 C0.90092985 7.28069876 -0.01881339 9.64515214 -1 12 C-1.66 10.68 -2.32 9.36 -3 8 C-2.34 8 -1.68 8 -1 8 C-1 7.34 -1 6.68 -1 6 C-1.66 5.67 -2.32 5.34 -3 5 C-2.01 3.35 -1.02 1.7 0 0 Z " fill="#6D6154" transform="translate(226,161)"/>
<path d="M0 0 C2 1 2 1 3 3 C2.0625 5.625 2.0625 5.625 1 8 C0.01 8 -0.98 8 -2 8 C-2.6875 6.25 -2.6875 6.25 -3 4 C-1.5625 1.75 -1.5625 1.75 0 0 Z " fill="#534433" transform="translate(80,71)"/>
<path d="M0 0 C0.99 0 1.98 0 3 0 C2.01 3.63 1.02 7.26 0 11 C-0.99 10.01 -1.98 9.02 -3 8 C-2.67 7.01 -2.34 6.02 -2 5 C-1.34 5 -0.68 5 0 5 C-0.2784375 4.0409375 -0.2784375 4.0409375 -0.5625 3.0625 C-0.706875 2.381875 -0.85125 1.70125 -1 1 C-0.67 0.67 -0.34 0.34 0 0 Z " fill="#9F988F" transform="translate(26,66)"/>
<path d="M0 0 C3 1 3 1 4.75 3.8125 C6.05483179 7.13982105 6.02866653 7.79584277 5 11 C4.16151196 9.54462432 3.32936066 8.08559627 2.5 6.625 C1.80390625 5.40683594 1.80390625 5.40683594 1.09375 4.1640625 C0 2 0 2 0 0 Z " fill="#B3ABA1" transform="translate(42,158)"/>
<path d="M0 0 C2.9375 1.3125 2.9375 1.3125 3.8125 3.4375 C3.874375 4.365625 3.874375 4.365625 3.9375 5.3125 C3.2775 5.3125 2.6175 5.3125 1.9375 5.3125 C1.9375 4.3225 1.9375 3.3325 1.9375 2.3125 C0.9475 2.3125 -0.0425 2.3125 -1.0625 2.3125 C-1.3925 2.9725 -1.7225 3.6325 -2.0625 4.3125 C-2.7225 4.3125 -3.3825 4.3125 -4.0625 4.3125 C-4.3925 2.9925 -4.7225 1.6725 -5.0625 0.3125 C-3.0625 -0.6875 -3.0625 -0.6875 0 0 Z " fill="#564635" transform="translate(178.0625,19.6875)"/>
<path d="M0 0 C2.91517292 1.07401108 4.77810176 1.77810176 7 4 C7 4.99 7 5.98 7 7 C2.25 5.125 2.25 5.125 0 4 C0 2.68 0 1.36 0 0 Z " fill="#6D6052" transform="translate(68,222)"/>
<path d="M0 0 C0.93423645 3.01031744 1.04449911 3.86650268 0 7 C-1.62332967 8.38576923 -3.28724465 9.72641268 -5 11 C-5.33 9.68 -5.66 8.36 -6 7 C-5.071875 6.6596875 -5.071875 6.6596875 -4.125 6.3125 C-1.38589791 4.62070165 -0.94975528 3.00755839 0 0 Z " fill="#6B5F51" transform="translate(211,200)"/>
<path d="M0 0 C2.31 0.66 4.62 1.32 7 2 C2.375 6 2.375 6 -1 6 C-0.67 4.02 -0.34 2.04 0 0 Z " fill="#4C3C2A" transform="translate(124,158)"/>
<path d="M0 0 C0.66 0.33 1.32 0.66 2 1 C0.51559252 5.7006237 0.51559252 5.7006237 -1.9375 7.125 C-2.618125 7.41375 -3.29875 7.7025 -4 8 C-5.70921589 9.5412312 -5.70921589 9.5412312 -7 11 C-7.66 10.67 -8.32 10.34 -9 10 C-8.43410156 9.44570312 -7.86820312 8.89140625 -7.28515625 8.3203125 C-6.55167969 7.59585938 -5.81820312 6.87140625 -5.0625 6.125 C-4.33160156 5.40570313 -3.60070312 4.68640625 -2.84765625 3.9453125 C-0.94332001 2.12972808 -0.94332001 2.12972808 0 0 Z " fill="#4E3F2F" transform="translate(102,137)"/>
<path d="M0 0 C-0.33 1.32 -0.66 2.64 -1 4 C-4.63 3.34 -8.26 2.68 -12 2 C-12 1.67 -12 1.34 -12 1 C-7.95858806 0.36605303 -4.0934693 -0.12404452 0 0 Z " fill="#5C4E3F" transform="translate(172,65)"/>
<path d="M0 0 C1.32 0.66 2.64 1.32 4 2 C1.16569547 5.2542015 -0.68607774 6.5206753 -5 7 C-3.35 4.69 -1.7 2.38 0 0 Z " fill="#6F6256" transform="translate(48,43)"/>
<path d="M0 0 C1.32 0 2.64 0 4 0 C4 0.99 4 1.98 4 3 C4.66 3 5.32 3 6 3 C6 4.98 6 6.96 6 9 C5.566875 8.360625 5.13375 7.72125 4.6875 7.0625 C3.08760823 4.73253997 3.08760823 4.73253997 0 4 C0 2.68 0 1.36 0 0 Z " fill="#887D70" transform="translate(14,147)"/>
<path d="M0 0 C3.43927579 1.2419607 6.25207819 2.55740284 9 5 C9 5.66 9 6.32 9 7 C5.56072421 5.7580393 2.74792181 4.44259716 0 2 C0 1.34 0 0.68 0 0 Z " fill="#968D84" transform="translate(181,21)"/>
<path d="M0 0 C2.97 0.33 5.94 0.66 9 1 C6.53721199 3.46278801 4.29323018 3.99771255 1 5 C0.67 3.35 0.34 1.7 0 0 Z " fill="#40301C" transform="translate(125,67)"/>
<path d="M0 0 C0.66 0 1.32 0 2 0 C2.12375 0.61875 2.2475 1.2375 2.375 1.875 C2.87197356 4.19120832 2.87197356 4.19120832 5 6 C0.375 8.125 0.375 8.125 -3 7 C-1.68 6.67 -0.36 6.34 1 6 C1 5.34 1 4.68 1 4 C0.34 3.67 -0.32 3.34 -1 3 C-0.67 2.01 -0.34 1.02 0 0 Z " fill="#53432F" transform="translate(109,232)"/>
<path d="M0 0 C0 3 0 3 -2.5 5.6875 C-3.325 6.450625 -4.15 7.21375 -5 8 C-5.66 7.67 -6.32 7.34 -7 7 C-5.42655961 3.85311922 -2.72148049 2.20034593 0 0 Z " fill="#A19A91" transform="translate(227,182)"/>
<path d="M0 0 C2.96404505 2.80804268 5.44499019 5.18315774 7 9 C2.36285097 7.53563715 2.36285097 7.53563715 0.6875 5.0625 C0 3 0 3 0 0 Z " fill="#90897F" transform="translate(54,177)"/>
<path d="M0 0 C3 1 3 1 4.6875 3.9375 C6 7 6 7 6 9 C5.34 9 4.68 9 4 9 C4 8.34 4 7.68 4 7 C3.34 7 2.68 7 2 7 C1.34 4.69 0.68 2.38 0 0 Z " fill="#807568" transform="translate(17,162)"/>
<path d="M0 0 C0.33 0 0.66 0 1 0 C1 2.31 1 4.62 1 7 C-0.98 7 -2.96 7 -5 7 C-4.19152271 5.83054208 -3.37810888 4.66449539 -2.5625 3.5 C-2.11003906 2.8503125 -1.65757813 2.200625 -1.19140625 1.53125 C-0.79824219 1.0259375 -0.40507813 0.520625 0 0 Z " fill="#4B3C2A" transform="translate(113,124)"/>
<path d="M0 0 C1.32 0.99 2.64 1.98 4 3 C3.67 3.66 3.34 4.32 3 5 C0.9375 5.625 0.9375 5.625 -1 6 C-1.33 4.35 -1.66 2.7 -2 1 C-1.34 0.67 -0.68 0.34 0 0 Z " fill="#4F3E2B" transform="translate(202,39)"/>
<path d="M0 0 C2.475 0.495 2.475 0.495 5 1 C5 1.66 5 2.32 5 3 C5.66 3.33 6.32 3.66 7 4 C7.72159424 5.64363134 8.39351421 7.31050386 9 9 C7.87105124 8.06725891 6.74699124 7.12859878 5.625 6.1875 C4.99851563 5.66542969 4.37203125 5.14335938 3.7265625 4.60546875 C2 3 2 3 0 0 Z " fill="#C8C0B7" transform="translate(201,37)"/>
<path d="M0 0 C0.66 0.66 1.32 1.32 2 2 C-0.97 2.66 -3.94 3.32 -7 4 C-7.33 3.01 -7.66 2.02 -8 1 C-5.23749964 -0.38125018 -3.05268901 -0.19079306 0 0 Z " fill="#E3DCD3" transform="translate(91,15)"/>
<path d="M0 0 C-0.99 1.485 -0.99 1.485 -2 3 C-4.1640625 3.29296875 -4.1640625 3.29296875 -6.625 3.1875 C-7.44226563 3.16042969 -8.25953125 3.13335937 -9.1015625 3.10546875 C-9.72804688 3.07066406 -10.35453125 3.03585937 -11 3 C-10.67 2.34 -10.34 1.68 -10 1 C-6.6322481 0.06451336 -3.4815554 -0.09947301 0 0 Z " fill="#DFD9D1" transform="translate(129,7)"/>
<path d="M0 0 C0.66 0.99 1.32 1.98 2 3 C1.3203125 5.26171875 1.3203125 5.26171875 0.125 7.6875 C-0.45894531 8.89986328 -0.45894531 8.89986328 -1.0546875 10.13671875 C-1.52261719 11.05904297 -1.52261719 11.05904297 -2 12 C-2.66 11.01 -3.32 10.02 -4 9 C-3.67 8.34 -3.34 7.68 -3 7 C-2.34 7 -1.68 7 -1 7 C-0.67 4.69 -0.34 2.38 0 0 Z " fill="#B3ACA2" transform="translate(232,167)"/>
<path d="M0 0 C1.32 0 2.64 0 4 0 C4 0.99 4 1.98 4 3 C5.32 3.66 6.64 4.32 8 5 C5.36 5 2.72 5 0 5 C0 3.35 0 1.7 0 0 Z " fill="#90867A" transform="translate(110,11)"/>
<path d="M0 0 C1.98 0.66 3.96 1.32 6 2 C6 2.66 6 3.32 6 4 C6.66 4.33 7.32 4.66 8 5 C6.68 5.33 5.36 5.66 4 6 C3.34 5.01 2.68 4.02 2 3 C1.01 2.34 0.02 1.68 -1 1 C-0.67 0.67 -0.34 0.34 0 0 Z " fill="#4D3D28" transform="translate(88,224)"/>
<path d="M0 0 C1.98 0.66 3.96 1.32 6 2 C6.33 3.65 6.66 5.3 7 7 C5.83040013 6.02433888 4.66438823 5.044375 3.5 4.0625 C2.8503125 3.51722656 2.200625 2.97195312 1.53125 2.41015625 C1.0259375 1.94480469 0.520625 1.47945312 0 1 C0 0.67 0 0.34 0 0 Z " fill="#BFB9B1" transform="translate(58,185)"/>
<path d="M0 0 C0.99 0.33 1.98 0.66 3 1 C3 1.66 3 2.32 3 3 C2.34 3 1.68 3 1 3 C1 3.66 1 4.32 1 5 C0.34 5 -0.32 5 -1 5 C-1 5.66 -1 6.32 -1 7 C-1.66 6.67 -2.32 6.34 -3 6 C-2.01 4.02 -1.02 2.04 0 0 Z " fill="#5E5040" transform="translate(213,178)"/>
<path d="M0 0 C2.3773161 2.3773161 2.67028521 3.70285207 3 7 C2.34 7.66 1.68 8.32 1 9 C-1.125 2.25 -1.125 2.25 0 0 Z " fill="#776C5F" transform="translate(15,152)"/>
<path d="M0 0 C1.42944945 2.35438733 2.08661261 3.48032433 1.625 6.25 C1.41875 6.8275 1.2125 7.405 1 8 C0.34 8 -0.32 8 -1 8 C-1.04241723 5.66705225 -1.04092937 3.33297433 -1 1 C-0.67 0.67 -0.34 0.34 0 0 Z " fill="#D8D2CA" transform="translate(229,123)"/>
<path d="M0 0 C0.625 1.875 0.625 1.875 1 4 C-1.15634036 6.15634036 -3.37098712 7.47793991 -6 9 C-4.47291037 5.56404834 -2.40072955 2.88087546 0 0 Z " fill="#514131" transform="translate(143,88)"/>
<path d="M0 0 C1 2 1 2 0.875 4.5 C0 7 0 7 -2.5625 8.3125 C-3.7690625 8.6528125 -3.7690625 8.6528125 -5 9 C-3.50163895 5.88801935 -1.80066242 2.9465385 0 0 Z " fill="#B5AEA5" transform="translate(34,51)"/>
<path d="M0 0 C0.99 0.66 1.98 1.32 3 2 C0.625 3.5625 0.625 3.5625 -2 5 C-2.66 4.67 -3.32 4.34 -4 4 C-4.33 4.66 -4.66 5.32 -5 6 C-5 5.01 -5 4.02 -5 3 C-2.5 1.3125 -2.5 1.3125 0 0 Z " fill="#42311D" transform="translate(213,54)"/>
<path d="M0 0 C0 0.99 0 1.98 0 3 C-1.96466413 4.06775224 -3.96855359 5.06553465 -6 6 C-6.66 5.67 -7.32 5.34 -8 5 C-2.25 0 -2.25 0 0 0 Z " fill="#7E7266" transform="translate(204,211)"/>
<path d="M0 0 C3.63 0 7.26 0 11 0 C11 0.33 11 0.66 11 1 C8.36 1 5.72 1 3 1 C2.67 1.99 2.34 2.98 2 4 C1.34 2.68 0.68 1.36 0 0 Z " fill="#574838" transform="translate(111,157)"/>
<path d="M0 0 C3 2 3 2 3.6875 5.125 C3.8421875 6.548125 3.8421875 6.548125 4 8 C3.34 8 2.68 8 2 8 C0.74335022 5.09399739 0 3.20395416 0 0 Z " fill="#4A3A28" transform="translate(16,151)"/>
<path d="M0 0 C0.66 0.66 1.32 1.32 2 2 C-0.97 4.475 -0.97 4.475 -4 7 C-4 4 -4 4 -2 1.8125 C-1.34 1.214375 -0.68 0.61625 0 0 Z " fill="#ABA39A" transform="translate(53,36)"/>
<path d="M0 0 C0.66 0.33 1.32 0.66 2 1 C2.33 1.99 2.66 2.98 3 4 C3.66 4.33 4.32 4.66 5 5 C3.68 5.33 2.36 5.66 1 6 C0.87625 5.360625 0.7525 4.72125 0.625 4.0625 C0.315625 3.0415625 0.315625 3.0415625 0 2 C-0.66 1.67 -1.32 1.34 -2 1 C-1.34 0.67 -0.68 0.34 0 0 Z " fill="#D2CBC1" transform="translate(79,15)"/>
</svg>
